<?xml version="1.0" standalone="no"?>
<!DOCTYPE svg PUBLIC "-//W3C//DTD SVG 1.1//EN" "http://www.w3.org/Graphics/SVG/1.1/DTD/svg11.dtd" >
<svg>
<metadata>
Created by FontForge 20120731 at Thu Sep  5 23:03:03 2019
 By www
Copyright (c) 2008 -2009 Linotype GmbH, www.linotype.com. All rights reserved. This font software may not be reproduced, modified, disclosed or transferred without the express written approval of Linotype GmbH. Trade Gothic is a trademark of Linotype Corp. registered in the U.S. Patent and Trademark Office and may be registered in certain other jurisdictions in the name of Linotype Corp. or its licensee Linotype GmbH. This typeface is original artwork of Linotype Design Studio. The design may be protected in certain jurisdictions.
</metadata>
<defs>
<font id="TradeGothicNextW02-Cm" horiz-adv-x="384" >
  <font-face 
    font-family="TradeGothicNextW02-Cm"
    font-weight="400"
    font-stretch="normal"
    units-per-em="1000"
    panose-1="2 11 5 8 4 3 3 2 0 4"
    ascent="773"
    descent="-227"
    x-height="518"
    cap-height="718"
    bbox="-138 -191 830 943"
    underline-thickness="50"
    underline-position="-50"
    unicode-range="U+000D-FB02"
  />
<missing-glyph horiz-adv-x="0" 
 />
    <glyph glyph-name=".notdef" horiz-adv-x="0" 
 />
    <glyph glyph-name="glyph1" horiz-adv-x="0" 
 />
    <glyph glyph-name="uni000D" unicode="&#xd;" horiz-adv-x="0" 
 />
    <glyph glyph-name="space" unicode=" " horiz-adv-x="151" 
 />
    <glyph glyph-name="exclam" unicode="!" horiz-adv-x="188" 
d="M63 225l-22 493h94l-19 -493h-53zM47 0v105h85v-105h-85z" />
    <glyph glyph-name="quotedbl" unicode="&#x22;" horiz-adv-x="321" 
d="M69 472l-17 246h81l-17 -246h-47zM202 472l-17 246h81l-17 -246h-47z" />
    <glyph glyph-name="numbersign" unicode="#" 
d="M55 0l28 213h-68v67h77l21 163h-67v67h76l28 208h56l-28 -208h68l28 208h55l-28 -208h68v-67h-77l-22 -163h68v-67h-77l-28 -213h-54l28 213h-69l-28 -213h-55zM147 280h69l21 163h-68z" />
    <glyph glyph-name="dollar" unicode="$" 
d="M169 -117v122q-129 13 -136 194l71 3q4 -60 19.5 -89.5t45.5 -37.5v266q-24 20 -47 41t-41 46.5t-29.5 56t-11.5 69.5q0 71 34.5 112.5t94.5 46.5v71h51v-73q60 -11 88 -56.5t32 -111.5l-68 -5q-3 37 -15 63.5t-37 37.5v-239q24 -20 47 -42t41.5 -48.5t30 -59t11.5 -73.5
q0 -75 -35 -119t-95 -52v-123h-51zM280 170q0 40 -17 69.5t-43 55.5v-220q27 8 43.5 32t16.5 63zM109 560q0 -35 17 -63t43 -53v200q-29 -5 -44.5 -27t-15.5 -57z" />
    <glyph glyph-name="percent" unicode="%" horiz-adv-x="472" 
d="M129 541q31 0 46.5 19t15.5 48q0 28 -15.5 47.5t-46.5 19.5t-46.5 -19.5t-15.5 -47.5q0 -29 15.5 -48t46.5 -19zM129 490q-53 0 -84.5 34t-31.5 84q0 51 31.5 84.5t84.5 33.5q52 0 84 -33.5t32 -84.5q0 -25 -8.5 -46.5t-23.5 -37.5t-36.5 -25t-47.5 -9zM35 -22l340 760
h58l-340 -760h-58zM343 43q31 0 46.5 18.5t15.5 47.5t-15.5 48.5t-46.5 19.5t-46.5 -19.5t-15.5 -48.5t15.5 -47.5t46.5 -18.5zM343 -8q-53 0 -84.5 34t-31.5 83q0 51 31.5 85t84.5 34q52 0 84 -34t32 -85q0 -49 -32 -83t-84 -34z" />
    <glyph glyph-name="ampersand" unicode="&#x26;" horiz-adv-x="458" 
d="M397 -9q-36 28 -70 66q-26 -31 -61.5 -48t-83.5 -17q-76 0 -116 46.5t-40 128.5q0 34 8 64t21.5 57t31 51.5t36.5 47.5q-20 54 -31 104t-11 94q0 64 31 102.5t93 38.5q58 0 86.5 -34t28.5 -91q0 -30 -10 -58t-26 -55t-36.5 -53t-41.5 -52q25 -54 54 -101q25 -44 58 -89
q11 35 19 75.5t15 82.5l74 -9q-10 -61 -23 -114.5t-33 -98.5q18 -20 37 -39t42 -38zM189 61q30 0 52.5 13.5t39.5 37.5q-23 29 -44 60.5t-41 65.5q-11 19 -21.5 37.5t-19.5 37.5q-22 -33 -36 -69t-14 -76q0 -48 20.5 -77.5t63.5 -29.5zM157 585q0 -32 5.5 -64.5t16.5 -66.5
q28 35 47 69.5t19 75.5q0 59 -41 59q-47 0 -47 -73z" />
    <glyph glyph-name="quotesingle" unicode="'" horiz-adv-x="188" 
d="M69 472l-17 246h81l-17 -246h-47z" />
    <glyph glyph-name="parenleft" unicode="(" horiz-adv-x="231" 
d="M138 -52q-26 49 -44 96t-29.5 94t-17 96.5t-5.5 102.5q0 106 22.5 201t73.5 188h64q-52 -101 -74.5 -194.5t-22.5 -194.5q0 -102 23.5 -199.5t73.5 -189.5h-64z" />
    <glyph glyph-name="parenright" unicode=")" horiz-adv-x="231" 
d="M29 -52q50 92 73.5 189.5t23.5 199.5q0 101 -22.5 194.5t-74.5 194.5h64q51 -93 73.5 -188t22.5 -201q0 -53 -5.5 -102.5t-17 -96.5t-29.5 -94t-44 -96h-64z" />
    <glyph glyph-name="asterisk" unicode="*" horiz-adv-x="330" 
d="M227 451l-60 98l-61 -100l-46 35l75 88l-114 27l18 55l107 -45l-10 117h58l-10 -117l109 46l16 -56l-112 -27l76 -88z" />
    <glyph glyph-name="plus" unicode="+" 
d="M219 232v-138h-52v138h-141v50h141v128h52v-128h139v-50h-139z" />
    <glyph glyph-name="comma" unicode="," horiz-adv-x="188" 
d="M24 -141l51 141h-32v105h85v-103l-54 -143h-50z" />
    <glyph glyph-name="hyphen" unicode="-" horiz-adv-x="240" 
d="M27 223v71h186v-71h-186z" />
    <glyph glyph-name="period" unicode="." horiz-adv-x="188" 
d="M43 0v105h85v-105h-85z" />
    <glyph glyph-name="slash" unicode="/" horiz-adv-x="218" 
d="M-7 -52l176 778h55l-176 -778h-55z" />
    <glyph glyph-name="zero" unicode="0" 
d="M192 -8q-84 0 -119.5 87t-35.5 277q0 187 35 278.5t120 91.5t120 -91.5t35 -278.5q0 -190 -35.5 -277t-119.5 -87zM192 61q44 0 60 70.5t16 224.5q0 152 -16.5 227t-59.5 75t-59 -75t-16 -227q0 -154 15.5 -224.5t59.5 -70.5z" />
    <glyph glyph-name="one" unicode="1" 
d="M80 0v68h82v563l-91 -17v61l106 43h62v-650h80v-68h-239z" />
    <glyph glyph-name="two" unicode="2" 
d="M34 0v36q0 48 19 94t46 92q25 40 53.5 80t52.5 79t40 78t16 78q0 24 -3 45t-11.5 37.5t-22.5 26t-35 9.5q-38 0 -56.5 -33t-21.5 -102h-73q6 206 152 206q42 0 70.5 -14t46 -39t25.5 -59t8 -73q0 -45 -18.5 -91t-45.5 -91t-57.5 -89t-55.5 -84q-20 -31 -32.5 -59.5
t-14.5 -54.5h224v-72h-306z" />
    <glyph glyph-name="three" unicode="3" 
d="M343 196q0 -94 -44.5 -149t-122.5 -55q-74 0 -110.5 46.5t-41.5 135.5l75 7q8 -117 78 -117q42 0 64 36.5t22 100.5q0 68 -26.5 108t-93.5 40h-16v71h17q63 0 87.5 34t24.5 90q0 57 -20.5 84t-52.5 27q-29 0 -48 -19t-25 -64l-73 5q8 72 45.5 110.5t103.5 38.5
q74 0 112 -47.5t38 -125.5q0 -64 -23.5 -103.5t-67.5 -62.5v-2q50 -23 74 -67t24 -122z" />
    <glyph glyph-name="four" unicode="4" 
d="M217 0v166h-196v74l171 479h97v-486h75v-67h-75v-166h-72zM217 599h-2l-128 -366h130v366z" />
    <glyph glyph-name="five" unicode="5" 
d="M348 245q0 -124 -41.5 -188.5t-122.5 -64.5q-64 0 -103 42.5t-45 137.5l73 6q9 -115 75 -115q44 0 64 45t20 135q0 88 -20 129t-60 41q-46 0 -70 -60l-67 5l24 360h239v-72h-177l-15 -195l2 -1q16 14 36 22.5t44 8.5q69 0 106.5 -59.5t37.5 -176.5z" />
    <glyph glyph-name="six" unicode="6" 
d="M265 573q-7 38 -22.5 60t-43.5 22q-24 0 -40 -17t-25.5 -50t-13.5 -82t-5 -112h2q22 29 47 39.5t50 10.5q65 0 99 -55t34 -162q0 -118 -41 -176.5t-110 -58.5q-44 0 -74.5 22t-49.5 64t-27.5 103t-8.5 140q0 99 7.5 175t26.5 127t50 77t79 26q60 0 93.5 -35t44.5 -105z
M115 302q1 -122 18.5 -181.5t63.5 -59.5q33 0 52 38t19 125q0 69 -17.5 109t-57.5 40q-23 0 -45 -18.5t-33 -52.5z" />
    <glyph glyph-name="seven" unicode="7" 
d="M71 0l191 642h-218v76h294v-69l-185 -649h-82z" />
    <glyph glyph-name="eight" unicode="8" 
d="M354 183q0 -86 -42 -138.5t-121 -52.5q-39 0 -69 14t-49.5 39t-29.5 60.5t-10 77.5q0 61 27 109t79 90q-19 16 -36 34.5t-30 40t-20.5 47.5t-7.5 58q0 75 37.5 119.5t109.5 44.5q73 0 111.5 -43.5t38.5 -119.5q0 -59 -26 -101.5t-67 -75.5q20 -17 39 -37t33.5 -44
t23.5 -54t9 -68zM277 180q0 28 -7.5 51t-20 42.5t-29.5 36t-35 32.5q-42 -39 -58.5 -76.5t-16.5 -85.5q0 -60 20.5 -91.5t61.5 -31.5q40 0 62.5 32.5t22.5 90.5zM267 563q0 46 -20 72.5t-54 26.5q-35 0 -54 -27.5t-19 -70.5q0 -48 24.5 -79.5t59.5 -60.5q63 54 63 139z" />
    <glyph glyph-name="nine" unicode="9" 
d="M263 324q-22 -29 -47 -39.5t-50 -10.5q-65 0 -99 55t-34 162q0 118 41 176.5t111 58.5q44 0 74.5 -22t49.5 -64t27.5 -103t8.5 -140q0 -99 -8 -175t-26.5 -127t-50 -77t-79.5 -26q-116 0 -137 140l71 13q8 -38 23 -60t43 -22q24 0 40 17t25.5 50t13.5 82t5 112h-2z
M265 416q-1 122 -18.5 181.5t-63.5 59.5q-33 0 -52 -38t-19 -125q0 -69 18 -109t57 -40q23 0 45 18.5t33 52.5z" />
    <glyph glyph-name="colon" unicode=":" horiz-adv-x="188" 
d="M43 0v105h85v-105h-85zM43 309v105h85v-105h-85z" />
    <glyph glyph-name="semicolon" unicode=";" horiz-adv-x="188" 
d="M24 -141l51 141h-32v105h85v-103l-54 -143h-50zM43 309v105h85v-105h-85z" />
    <glyph glyph-name="less" unicode="&#x3c;" 
d="M48 227v60l274 110v-55l-220 -85l220 -85v-55z" />
    <glyph glyph-name="equal" unicode="=" 
d="M26 308v50h332v-50h-332zM26 156v50h332v-50h-332z" />
    <glyph glyph-name="greater" unicode="&#x3e;" 
d="M63 117v55l219 85l-219 85v55l273 -110v-60z" />
    <glyph glyph-name="question" unicode="?" horiz-adv-x="312" 
d="M103 225v40q0 58 14.5 98t32 74.5t32 69t14.5 82.5q0 35 -14.5 52t-37.5 17q-26 0 -39 -21.5t-16 -58.5l-74 5q6 70 39 106.5t93 36.5q69 0 98 -39.5t29 -99.5q0 -49 -18.5 -91t-40 -81.5t-40 -79.5t-18.5 -85v-25h-54zM86 0v105h85v-105h-85z" />
    <glyph glyph-name="at" unicode="@" horiz-adv-x="493" 
d="M215 109q19 0 33.5 22.5t24 55t14 69.5t4.5 66q0 31 -6.5 55t-28.5 24q-20 0 -34 -20.5t-22.5 -51t-12.5 -66t-4 -65.5q0 -42 7.5 -65.5t24.5 -23.5zM396 -79q-38 -26 -73.5 -33.5t-73.5 -7.5q-112 0 -164.5 83t-52.5 257q0 87 12 159.5t39 124.5t69.5 81t104.5 29
q97 0 149.5 -72.5t52.5 -220.5q0 -58 -9 -106t-26 -83t-40.5 -54.5t-53.5 -19.5q-22 0 -36 10.5t-18 39.5h-1q-14 -26 -32 -38t-39 -12t-35 12t-22 32t-11 46t-3 55q0 46 7.5 90.5t22.5 79.5t37 56.5t51 21.5q47 0 63 -56l10 39h40l-44 -257q-5 -26 -3.5 -47.5t18.5 -21.5
q18 0 31.5 17t23 46.5t14.5 68t5 81.5q0 127 -38.5 185t-113.5 58q-51 0 -85 -26t-54 -72t-28 -109t-8 -137q0 -145 39.5 -217.5t127.5 -72.5q29 0 61 7t63 29z" />
    <glyph glyph-name="A" unicode="A" horiz-adv-x="403" 
d="M305 0l-31 199h-142l-31 -199h-82l126 718h114l128 -718h-82zM143 272h119l-58 375h-3z" />
    <glyph glyph-name="B" unicode="B" horiz-adv-x="405" 
d="M51 0v718h125q93 0 141.5 -40.5t48.5 -141.5q0 -60 -23.5 -97.5t-63.5 -57.5v-2q53 -20 75 -66.5t22 -109.5q0 -56 -13 -94.5t-38.5 -62.5t-63.5 -35t-88 -11h-122zM170 410q59 0 86.5 30.5t27.5 92.5q0 32 -7 53.5t-20 34t-31.5 18t-40.5 5.5h-54v-234h39zM182 74
q57 0 83.5 28.5t26.5 103.5q0 73 -27 103.5t-92 30.5h-42v-266h51z" />
    <glyph glyph-name="C" unicode="C" horiz-adv-x="391" 
d="M361 249q-4 -122 -40.5 -189.5t-119.5 -67.5q-48 0 -80.5 23.5t-52 69.5t-28 115t-8.5 161q0 83 7.5 150.5t27 115t52 73.5t82.5 26q41 0 70 -16.5t47.5 -47t27.5 -73.5t11 -97h-76q-5 80 -23.5 119t-55.5 39q-48 0 -66.5 -68t-18.5 -221q0 -80 4.5 -136t14.5 -91t26 -51
t40 -16q42 0 60.5 46t22.5 136h76z" />
    <glyph glyph-name="D" unicode="D" horiz-adv-x="416" 
d="M51 0v718h91q65 0 111 -18.5t75 -60t42 -109t13 -165.5q0 -92 -11.5 -160t-38 -114t-70 -68.5t-108.5 -22.5h-104zM160 76q74 0 106.5 68t32.5 221q0 78 -8 131t-25.5 85.5t-45.5 46.5t-68 14h-19v-566h27z" />
    <glyph glyph-name="E" unicode="E" horiz-adv-x="346" 
d="M51 0v718h269v-75h-188v-234h145v-74h-145v-260h200v-75h-281z" />
    <glyph glyph-name="F" unicode="F" horiz-adv-x="328" 
d="M51 0v718h269v-75h-188v-234h145v-74h-145v-335h-81z" />
    <glyph glyph-name="G" unicode="G" horiz-adv-x="406" 
d="M298 0v51h-2q-23 -33 -49.5 -46t-58.5 -13q-41 0 -70.5 20.5t-48.5 65t-28 114.5t-9 169q0 85 9 152.5t29 114.5t53.5 72.5t81.5 25.5q44 0 73.5 -17t48 -48t26.5 -74t10 -95h-76q-5 79 -23.5 118t-58.5 39q-50 0 -69 -69.5t-19 -218.5q0 -81 3.5 -137.5t13.5 -91t27 -50
t44 -15.5q22 0 38 12t26 31.5t14.5 45t4.5 51.5v33.5t-2 30.5h-87v71h167v-342h-68z" />
    <glyph glyph-name="H" unicode="H" horiz-adv-x="406" 
d="M275 0v339h-143v-339h-81v718h81v-305h143v305h80v-718h-80z" />
    <glyph glyph-name="I" unicode="I" horiz-adv-x="183" 
d="M51 0v718h81v-718h-81z" />
    <glyph glyph-name="J" unicode="J" horiz-adv-x="253" 
d="M203 162q0 -84 -31.5 -127t-109.5 -43q-10 0 -22 1t-25 3v78q11 -3 21.5 -4t18.5 -1q37 0 51.5 22.5t14.5 65.5v561h82v-556v0z" />
    <glyph glyph-name="K" unicode="K" horiz-adv-x="381" 
d="M302 0l-110 367l-63 -127v-240h-78v718h78v-335h2l156 335h83l-124 -258l140 -460h-84z" />
    <glyph glyph-name="L" unicode="L" horiz-adv-x="329" 
d="M51 0v718h81v-643h192v-75h-273z" />
    <glyph glyph-name="M" unicode="M" horiz-adv-x="520" 
d="M397 0v581h-2l-106 -581h-57l-107 581h-2v-581h-72v718h116l93 -508h2l93 508h115v-718h-73z" />
    <glyph glyph-name="N" unicode="N" horiz-adv-x="413" 
d="M288 0l-163 561h-2v-561h-72v718h104l133 -467h2v467h73v-718h-75z" />
    <glyph glyph-name="O" unicode="O" horiz-adv-x="404" 
d="M202 -8q-91 0 -130.5 90t-39.5 279q0 97 9.5 166.5t30 113.5t53 64.5t77.5 20.5t77.5 -20.5t52.5 -64.5t29.5 -113.5t9.5 -166.5q0 -189 -39 -279t-130 -90zM202 65q43 0 64 69.5t21 226.5q0 79 -4.5 134t-15 90t-26.5 51t-39 16t-39.5 -16t-26.5 -51t-14.5 -90
t-4.5 -134q0 -157 20.5 -226.5t64.5 -69.5z" />
    <glyph glyph-name="P" unicode="P" horiz-adv-x="388" 
d="M51 0v718h120q99 0 148.5 -48t49.5 -152t-51.5 -155t-140.5 -51h-45v-312h-81zM181 385q29 0 49 10t32 28t17.5 42t5.5 52q0 71 -27.5 98.5t-82.5 27.5h-43v-258h49z" />
    <glyph glyph-name="Q" unicode="Q" horiz-adv-x="404" 
d="M202 -8q-91 0 -130.5 90t-39.5 279q0 97 9.5 166.5t30 113.5t53 64.5t77.5 20.5t77.5 -20.5t52.5 -64.5t29.5 -113.5t9.5 -166.5q0 -188 -38 -277q11 -29 22 -42.5t30 -17.5v-86q-32 4 -53.5 21t-44.5 61q-34 -28 -85 -28zM202 65q33 0 53 39q-10 23 -23 39t-30 21v84
q25 -5 43.5 -18.5t32.5 -33.5q9 64 9 165q0 79 -4.5 134t-15 90t-26.5 51t-39 16t-39.5 -16t-26.5 -51t-14.5 -90t-4.5 -134q0 -157 20.5 -226.5t64.5 -69.5z" />
    <glyph glyph-name="R" unicode="R" horiz-adv-x="395" 
d="M285 0l-93 326h-60v-326h-81v718h119q97 0 144 -43t47 -141q0 -70 -24.5 -114.5t-69.5 -63.5l106 -356h-88zM184 397q45 0 69 29t24 101q0 35 -7 58.5t-21 37t-35 19t-50 5.5h-32v-250h52z" />
    <glyph glyph-name="S" unicode="S" horiz-adv-x="354" 
d="M247 526q-3 63 -20.5 95.5t-54.5 32.5q-34 0 -49.5 -21.5t-15.5 -60.5q0 -42 16.5 -73.5t41 -58.5t53.5 -53t53.5 -57.5t41 -70.5t16.5 -92q0 -81 -40 -128t-115 -47q-77 0 -112 48t-40 148l76 3q5 -69 22.5 -98t55.5 -29q35 0 54.5 25t19.5 69q0 43 -16.5 75.5t-41 60.5
t-53 54t-53 57t-41 69t-16.5 90q0 75 36.5 118.5t104.5 43.5q78 0 112 -51.5t38 -145.5z" />
    <glyph glyph-name="T" unicode="T" horiz-adv-x="335" 
d="M128 0v643h-117v75h314v-75h-116v-643h-81z" />
    <glyph glyph-name="U" unicode="U" horiz-adv-x="402" 
d="M273 718h81v-551q0 -91 -37.5 -132.5t-115.5 -41.5t-115 41.5t-37 132.5v551h81v-560q0 -53 18.5 -74t52.5 -21q35 0 53.5 21t18.5 74v560z" />
    <glyph glyph-name="V" unicode="V" horiz-adv-x="381" 
d="M152 0l-139 718h84l95 -553h2l93 553h85l-138 -718h-82z" />
    <glyph glyph-name="W" unicode="W" horiz-adv-x="549" 
d="M340 0l-65 550h-2l-62 -550h-88l-102 718h81l63 -538h2l63 538h90l64 -538h2l62 538h81l-100 -718h-89z" />
    <glyph glyph-name="X" unicode="X" horiz-adv-x="364" 
d="M276 0l-92 272h-2l-94 -272h-83l132 371l-122 347h85l82 -245h2l86 245h83l-124 -345l133 -373h-86z" />
    <glyph glyph-name="Y" unicode="Y" horiz-adv-x="375" 
d="M147 0v299l-140 419h85l95 -314h2l100 314h84l-144 -419v-299h-82z" />
    <glyph glyph-name="Z" unicode="Z" horiz-adv-x="338" 
d="M12 0v77l217 566h-200v75h289v-74l-217 -569h217v-75h-306z" />
    <glyph glyph-name="bracketleft" unicode="[" horiz-adv-x="231" 
d="M51 -44v762h143v-46h-82v-670h82v-46h-143z" />
    <glyph glyph-name="backslash" unicode="\" horiz-adv-x="218" 
d="M169 -52l-176 778h56l175 -778h-55z" />
    <glyph glyph-name="bracketright" unicode="]" horiz-adv-x="231" 
d="M37 -44v46h82v670h-82v46h143v-762h-143z" />
    <glyph glyph-name="asciicircum" unicode="^" horiz-adv-x="349" 
d="M258 424l-84 238l-83 -238h-57l108 294h65l107 -294h-56z" />
    <glyph glyph-name="underscore" unicode="_" horiz-adv-x="354" 
d="M-5 -121v46h364v-46h-364z" />
    <glyph glyph-name="grave" unicode="`" horiz-adv-x="293" 
d="M161 577l-88 141h87l59 -141h-58z" />
    <glyph glyph-name="a" unicode="a" horiz-adv-x="332" 
d="M228 0l-3 52q-47 -60 -110 -60q-48 0 -71.5 34.5t-23.5 96.5q0 40 11 73.5t37 60.5q23 23 59.5 42t90.5 41q2 24 2.5 46t-4 39.5t-16 27.5t-33.5 10q-32 0 -48 -26t-18 -68h-65q4 71 35 114t99 43q36 0 59.5 -11t37 -31.5t18.5 -49t5 -62.5v-288l6 -84h-68zM217 278
q-36 -14 -59 -28t-39 -31q-15 -17 -20.5 -40t-5.5 -49q0 -32 11 -52t37 -20q44 0 76 58v162z" />
    <glyph glyph-name="b" unicode="b" horiz-adv-x="353" 
d="M45 0v718h72v-242q16 21 35 33.5t46 12.5q62 0 94 -62t32 -199q0 -139 -28.5 -204t-87.5 -65q-32 0 -55.5 20t-40.5 46l-10 -58h-57zM117 124q5 -9 12.5 -20t16.5 -20t19.5 -15t20.5 -6q33 0 48 48t15 150t-18 147t-53 45q-19 0 -34 -14t-27 -31v-284z" />
    <glyph glyph-name="c" unicode="c" horiz-adv-x="329" 
d="M306 166q-5 -88 -38.5 -131t-99.5 -43q-41 0 -67.5 18t-42 51.5t-22 82.5t-6.5 111q0 58 6.5 107.5t22.5 86t44 57t71 20.5q35 0 59.5 -12t40 -33.5t23 -51.5t8.5 -66h-70q-2 43 -15.5 70.5t-45.5 27.5q-20 0 -33.5 -15t-21.5 -42t-11.5 -65t-3.5 -84q0 -102 13.5 -149
t51.5 -47q32 0 47.5 26.5t18.5 80.5h71z" />
    <glyph glyph-name="d" unicode="d" horiz-adv-x="353" 
d="M252 0l-11 58q-17 -26 -39.5 -46t-54.5 -20q-60 0 -88.5 65t-28.5 204q0 137 31.5 199t92.5 62q27 0 47 -12.5t35 -33.5v242h73v-718h-57zM236 408q-11 17 -26.5 31t-34.5 14q-35 0 -53 -45t-18 -147q0 -101 15 -149.5t48 -48.5q10 0 20.5 6t20 15t16.5 20t12 20v284z
" />
    <glyph glyph-name="e" unicode="e" horiz-adv-x="337" 
d="M306 163q-5 -79 -38 -125t-99 -46q-74 0 -106.5 62.5t-32.5 206.5q0 131 33 198t107 67q39 0 65 -16.5t41.5 -46t22.5 -71t7 -92.5v-24t-1 -28h-204q1 -104 16 -148t53 -44q19 0 31.5 8.5t20 23t11 34t4.5 41.5h69zM170 464q-31 0 -48 -36t-21 -121h133q0 79 -14 118
t-50 39z" />
    <glyph glyph-name="f" unicode="f" horiz-adv-x="222" 
d="M75 0v454h-70v64h70v86q0 68 26.5 95t76.5 27q12 0 22.5 -1t23.5 -4v-66q-8 2 -15 3t-15 1q-26 0 -36 -12t-10 -35v-94h76v-64h-76v-454h-73z" />
    <glyph glyph-name="g" unicode="g" horiz-adv-x="329" 
d="M287 340q0 -91 -31.5 -140.5t-95.5 -49.5q-30 0 -51 10q-8 -9 -13 -18.5t-5 -22.5q0 -16 17.5 -24t43.5 -13t56 -11.5t56 -20t43.5 -37t17.5 -64.5q0 -61 -43.5 -95t-118.5 -34q-69 0 -110.5 27t-41.5 80q0 34 14 57.5t45 41.5v2q-21 5 -31 21.5t-10 42.5q0 49 44 95
q-40 47 -40 153q0 89 31 137.5t96 48.5q57 0 90 -42q14 20 34.5 34.5t42.5 13.5v-75q-35 0 -54 -18q14 -42 14 -99zM215 340q0 67 -13 96t-42 29t-42.5 -29t-13.5 -96q0 -69 13.5 -97.5t42.5 -28.5t42 28.5t13 97.5zM253 -58q0 18 -9.5 30t-26 20.5t-37.5 13t-45 7.5
q-26 -10 -40.5 -28t-14.5 -44q0 -30 22 -46.5t63 -16.5q40 0 64 16t24 48z" />
    <glyph glyph-name="h" unicode="h" horiz-adv-x="347" 
d="M232 0v379q0 41 -9 58.5t-32 17.5q-18 0 -37.5 -15.5t-36.5 -41.5v-398h-72v718h72v-251q47 59 102 59q45 0 65 -31q11 -17 15.5 -42t4.5 -59v-394h-72z" />
    <glyph glyph-name="i" unicode="i" horiz-adv-x="162" 
d="M42 623v94h78v-94h-78zM45 0v518h72v-518h-72z" />
    <glyph glyph-name="j" unicode="j" horiz-adv-x="167" 
d="M123 -59q0 -59 -23 -90t-79 -31q-8 0 -15.5 0.5t-20.5 2.5v68q7 -1 13 -1.5t13 -0.5q39 0 39 47v582h73v-577zM47 623v94h79v-94h-79z" />
    <glyph glyph-name="k" unicode="k" horiz-adv-x="331" 
d="M253 0l-87 273l-51 -86v-187h-70v718h70v-418h2l114 218h78l-92 -167l113 -351h-77z" />
    <glyph glyph-name="l" unicode="l" horiz-adv-x="162" 
d="M45 0v718h72v-718h-72z" />
    <glyph glyph-name="m" unicode="m" horiz-adv-x="519" 
d="M405 0v379q0 42 -9.5 59t-29.5 17q-18 0 -36 -15t-33 -40v-400h-72v383q0 38 -8.5 55t-28.5 17t-39 -18t-32 -40v-397h-72v518h72v-50q23 29 46.5 43.5t51.5 14.5q32 0 49 -16.5t25 -45.5q40 62 102 62q46 0 66 -34.5t20 -97.5v-394h-72z" />
    <glyph glyph-name="n" unicode="n" horiz-adv-x="347" 
d="M232 0v379q0 41 -9 58.5t-32 17.5q-18 0 -37.5 -15.5t-36.5 -42.5v-397h-72v518h72v-52q46 60 102 60q45 0 65 -31q11 -17 15.5 -42t4.5 -59v-394h-72z" />
    <glyph glyph-name="o" unicode="o" horiz-adv-x="349" 
d="M174 -8q-74 0 -109 63t-35 204q0 139 34.5 203t109.5 64q76 0 110.5 -64t34.5 -203q0 -141 -35.5 -204t-109.5 -63zM174 57q37 0 54 47t17 155q0 109 -16.5 156t-54.5 47t-54 -46.5t-16 -156.5q0 -108 16.5 -155t53.5 -47z" />
    <glyph glyph-name="p" unicode="p" horiz-adv-x="353" 
d="M45 -172v690h72v-52q17 26 38 43t52 17q60 0 88.5 -64.5t28.5 -203.5q0 -138 -32 -200t-92 -62q-28 0 -47.5 13t-35.5 33v-214h-72zM117 111q12 -17 27 -31t34 -14q35 0 53 44t18 148q0 100 -15 148.5t-48 48.5q-10 0 -20.5 -6t-19.5 -15t-16.5 -19.5t-12.5 -20.5v-283z
" />
    <glyph glyph-name="q" unicode="q" horiz-adv-x="353" 
d="M236 -172v214q-15 -20 -35 -33t-47 -13q-61 0 -92.5 62t-31.5 200q0 139 28.5 203.5t88.5 64.5q32 0 54.5 -19.5t39.5 -45.5l11 57h57v-690h-73zM236 394q-5 10 -12 20.5t-16.5 19.5t-20 15t-20.5 6q-33 0 -48 -48.5t-15 -148.5q0 -102 18 -147t53 -45q19 0 34.5 14
t26.5 31v283z" />
    <glyph glyph-name="r" unicode="r" horiz-adv-x="231" 
d="M45 0v518h72v-74q20 38 43 60t59 22h6.5t9.5 -1v-80q-5 2 -9 2h-7q-33 0 -57 -19t-45 -62v-366h-72z" />
    <glyph glyph-name="s" unicode="s" horiz-adv-x="302" 
d="M206 376q-4 44 -18.5 65.5t-43.5 21.5q-25 0 -38 -16t-13 -39q0 -25 13.5 -45t34.5 -38t44.5 -36.5t44.5 -41t34.5 -52t13.5 -69.5q0 -63 -34 -98.5t-93 -35.5q-128 0 -132 155h66q2 -46 17.5 -69t47.5 -23q27 0 43 17t16 47t-13.5 52t-34 41t-44 37.5t-44 40.5t-34 49.5
t-13.5 65.5q0 56 31 88.5t87 32.5q66 0 94.5 -39.5t32.5 -109.5z" />
    <glyph glyph-name="t" unicode="t" horiz-adv-x="241" 
d="M231 5q-20 -5 -36 -7t-34 -2q-51 0 -71.5 26t-20.5 83v349h-65v64h65v170h72v-170h90v-64h-90v-334q0 -29 10 -41.5t32 -12.5q11 0 23.5 2t24.5 7v-70z" />
    <glyph glyph-name="u" unicode="u" horiz-adv-x="347" 
d="M230 0v52q-24 -29 -49 -44.5t-54 -15.5q-45 0 -65 32q-11 17 -15.5 41.5t-4.5 59.5v393h73v-379q0 -40 9 -58t32 -18q18 0 37.5 16t36.5 42v397h72v-518h-72z" />
    <glyph glyph-name="v" unicode="v" horiz-adv-x="306" 
d="M114 0l-109 518h79l67 -395h2l68 395h78l-109 -518h-76z" />
    <glyph glyph-name="w" unicode="w" horiz-adv-x="475" 
d="M300 0l-61 371h-2l-60 -371h-70l-99 518h75l59 -365h2l58 365h74l59 -365h2l57 365h75l-99 -518h-70z" />
    <glyph glyph-name="x" unicode="x" horiz-adv-x="299" 
d="M225 0l-74 191h-2l-75 -191h-79l114 274l-104 244h78l66 -167h2l66 167h77l-103 -245l113 -273h-79z" />
    <glyph glyph-name="y" unicode="y" horiz-adv-x="308" 
d="M187 -14q-11 -52 -24.5 -84.5t-30.5 -50.5t-39 -24.5t-50 -6.5q-8 0 -18.5 0.5t-18.5 2.5v69q19 -3 28 -3q17 0 29.5 5t22.5 18t17.5 35t14.5 56l3 13l-121 502h83l73 -378h2l68 378h79l-118 -532v0z" />
    <glyph glyph-name="z" unicode="z" horiz-adv-x="283" 
d="M13 0v63l168 391h-154v64h235v-62l-169 -391h172v-65h-252z" />
    <glyph glyph-name="braceleft" unicode="{" horiz-adv-x="231" 
d="M165 -44q-47 0 -64.5 29t-17.5 98v170q0 43 -9 62t-32 19h-17v45h17q23 0 32 19.5t9 62.5v130q0 69 17.5 98t64.5 29h34v-46h-15q-22 0 -31 -17.5t-9 -62.5v-128q0 -44 -8.5 -70t-31.5 -37v-2q13 -6 21 -17t12.5 -25.5t5.5 -30.5t1 -32v-168q0 -45 9 -62.5t31 -17.5h15
v-46h-34z" />
    <glyph glyph-name="bar" unicode="|" horiz-adv-x="171" 
d="M60 -52v778h52v-778h-52z" />
    <glyph glyph-name="braceright" unicode="}" horiz-adv-x="231" 
d="M146 83q0 -69 -17.5 -98t-64.5 -29h-35v46h16q22 0 30.5 17.5t8.5 62.5v168q0 16 1.5 32t5.5 30.5t12 25.5t22 17v2q-23 11 -32 37t-9 70v128q0 45 -8.5 62.5t-30.5 17.5h-16v46h35q47 0 64.5 -29t17.5 -98v-130q0 -43 9 -62.5t32 -19.5h17v-45h-17q-23 0 -32 -19t-9 -62
v-170v0z" />
    <glyph glyph-name="asciitilde" unicode="~" 
d="M356 315q-5 -55 -28 -88t-65 -33q-24 0 -43 9t-35 20t-31 20t-32 9q-20 0 -28.5 -17t-11.5 -43h-54q5 55 28 87.5t65 32.5q24 0 43 -9t35 -19.5t31 -19.5t32 -9q21 0 29 17t11 43h54z" />
    <glyph glyph-name="uni00A0" unicode="&#xa0;" horiz-adv-x="151" 
 />
    <glyph glyph-name="exclamdown" unicode="&#xa1;" horiz-adv-x="188" 
d="M53 -189l19 490h53l22 -490h-94zM56 421v105h85v-105h-85z" />
    <glyph glyph-name="cent" unicode="&#xa2;" 
d="M157 -126v120q-68 9 -92.5 77t-24.5 184q0 53 5.5 99.5t18.5 81.5t35.5 58t57.5 30v108h50v-108q57 -8 81.5 -51t26.5 -110h-70q-2 43 -15 70.5t-45 27.5q-20 0 -33.5 -15t-21.5 -42t-11.5 -65t-3.5 -84q0 -102 13.5 -149t51.5 -47q32 0 47 26.5t19 80.5h70
q-9 -155 -109 -171v-121h-50z" />
    <glyph glyph-name="sterling" unicode="&#xa3;" 
d="M25 77q45 23 61.5 63t16.5 100q0 20 -2.5 44t-6.5 50h-69v55h59q-7 45 -13 89t-6 82q0 80 38 123t99 43q78 0 111.5 -53t36.5 -153h-72q-1 27 -5 51.5t-12 43t-22 29t-36 10.5q-25 0 -43.5 -21.5t-18.5 -67.5q0 -42 6.5 -86.5t14.5 -89.5h111v-55h-103q4 -24 6 -47.5
t2 -46.5q0 -40 -6.5 -72.5t-18.5 -58.5q38 -41 74 -41q31 0 46 28.5t18 90.5h71q-3 -98 -33 -146.5t-101 -48.5q-32 0 -61 15t-54 42q-35 -36 -88 -58v86z" />
    <glyph glyph-name="currency" unicode="&#xa4;" 
d="M192 190q30 0 46 19t16 48q0 28 -16 48t-46 20q-31 0 -47 -20t-16 -48q0 -29 16 -48t47 -19zM255 156q-28 -17 -63 -17q-36 0 -64 17l-36 -37l-37 37l37 38q-16 26 -16 63q0 34 16 63l-37 38l37 37l36 -37q28 17 64 17q34 0 63 -18l37 38l37 -37l-38 -39q16 -27 16 -62
q0 -34 -17 -63l39 -38l-37 -37z" />
    <glyph glyph-name="yen" unicode="&#xa5;" 
d="M231 305l-2 -6v-68h107v-55h-107v-176h-77v176h-108v55h108v68l-2 6h-106v54h88l-119 359h79l97 -329h2l102 329h79l-123 -359h87v-54h-105z" />
    <glyph glyph-name="brokenbar" unicode="&#xa6;" horiz-adv-x="171" 
d="M60 426v300h52v-300h-52zM60 -52v320h52v-320h-52z" />
    <glyph glyph-name="section" unicode="&#xa7;" horiz-adv-x="305" 
d="M292 256q0 -46 -22.5 -71.5t-55.5 -30.5q19 -34 32 -66.5t13 -61.5q0 -51 -27.5 -78.5t-73.5 -27.5q-49 0 -81 29t-44 93l64 14q8 -33 22.5 -51.5t36.5 -18.5q37 0 37 41q0 19 -13 45.5t-33 57.5t-42.5 64.5t-42.5 67.5t-33 66.5t-13 61.5q0 45 22 71t56 30
q-20 34 -32.5 66.5t-12.5 62.5q0 51 27 78.5t72 27.5q49 0 79 -29t43 -93l-65 -14q-8 33 -21 51.5t-34 18.5q-34 0 -34 -41q0 -19 13 -45.5t32.5 -57.5t42.5 -64.5t42.5 -67.5t32.5 -67t13 -61zM83 394q0 -16 7.5 -36t20.5 -42.5t29 -47t33 -49.5q10 -6 21 -6q14 0 23.5 10
t9.5 30q0 16 -8 35.5t-21.5 42t-30 47t-33.5 50.5q-10 5 -18 5q-14 0 -23.5 -10.5t-9.5 -28.5z" />
    <glyph glyph-name="dieresis" unicode="&#xa8;" horiz-adv-x="293" 
d="M45 593v89h75v-89h-75zM172 593v89h75v-89h-75z" />
    <glyph glyph-name="copyright" unicode="&#xa9;" horiz-adv-x="530" 
d="M266 41q48 0 82 24t56.5 66t33 100.5t10.5 127.5q0 67 -10.5 125t-33 101t-56.5 67.5t-82 24.5t-82.5 -24.5t-57 -67.5t-33.5 -101t-11 -125q0 -69 11 -127.5t33.5 -100.5t57 -66t82.5 -24zM266 -8q-62 0 -106.5 29t-72.5 78.5t-41 116.5t-13 143q0 78 13 145t41 116.5
t72.5 77.5t106.5 28t106 -28t72 -77.5t41 -116.5t13 -145q0 -76 -13 -143t-41 -116.5t-72 -78.5t-106 -29zM361 299q-2 -71 -24 -110.5t-73 -39.5q-58 0 -79.5 54t-21.5 160q0 48 4.5 87.5t16 67t31 42.5t49.5 15q51 0 72 -37t23 -100h-52q-2 45 -12.5 65t-29.5 20
q-26 0 -36 -36t-10 -124q0 -46 2.5 -77.5t8 -50.5t14 -27t21.5 -8q22 0 31.5 23.5t11.5 75.5h53z" />
    <glyph glyph-name="ordfeminine" unicode="&#xaa;" horiz-adv-x="228" 
d="M150 380l-4 33q-16 -20 -33.5 -29t-38.5 -9q-31 0 -47 22t-16 64q0 27 7.5 48t24.5 38q15 15 39.5 28t59.5 27q3 29 -1 49.5t-28 20.5q-18 0 -27 -14.5t-11 -38.5h-53q2 45 23.5 74.5t71.5 29.5q47 0 65.5 -26.5t18.5 -74.5v-180l5 -62h-56zM142 555q-39 -14 -56 -33
q-9 -11 -11.5 -23.5t-2.5 -29.5q0 -41 27 -41q24 0 43 30v97zM15 250v46h190v-46h-190z" />
    <glyph glyph-name="guillemotleft" unicode="&#xab;" horiz-adv-x="361" 
d="M105 100l-76 157l74 157h70l-75 -158l75 -156h-68zM253 100l-75 157l73 157h70l-74 -158l74 -156h-68z" />
    <glyph glyph-name="logicalnot" unicode="&#xac;" 
d="M306 141v153h-280v47h332v-200h-52z" />
    <glyph glyph-name="uni00AD" unicode="&#xad;" horiz-adv-x="240" 
d="M27 223v71h186v-71h-186z" />
    <glyph glyph-name="registered" unicode="&#xae;" horiz-adv-x="349" 
d="M175 289q30 0 51.5 15t35.5 41.5t20.5 62.5t6.5 79q0 41 -6.5 77t-20.5 63t-35.5 42.5t-51.5 15.5t-51.5 -15.5t-36 -42.5t-21 -63t-6.5 -77q0 -43 6.5 -79t21 -62.5t36 -41.5t51.5 -15zM175 248q-39 0 -68.5 19t-48.5 51t-28.5 75.5t-9.5 93.5q0 51 9.5 94.5t28.5 75.5
t48.5 50.5t68.5 18.5t68 -18.5t48 -50.5t28.5 -75.5t9.5 -94.5q0 -50 -9.5 -93.5t-28.5 -75.5t-48 -51t-68 -19zM203 356l-30 114h-18v-114h-39v272h49q38 0 58 -17t20 -56q0 -50 -32 -68l37 -131h-45zM170 506q17 0 24 11.5t7 34.5q0 27 -10 34t-28 7h-8v-87h15z" />
    <glyph glyph-name="macron" unicode="&#xaf;" horiz-adv-x="293" 
d="M39 610v56h215v-56h-215z" />
    <glyph glyph-name="degree" unicode="&#xb0;" horiz-adv-x="270" 
d="M135 541q31 0 46.5 19t15.5 48q0 28 -15.5 47.5t-46.5 19.5t-46.5 -19.5t-15.5 -47.5q0 -29 15.5 -48t46.5 -19zM135 490q-53 0 -84.5 34t-31.5 84q0 51 31.5 84.5t84.5 33.5q52 0 84 -33.5t32 -84.5q0 -25 -8.5 -46.5t-23.5 -37.5t-36.5 -25t-47.5 -9z" />
    <glyph glyph-name="plusminus" unicode="&#xb1;" 
d="M219 254v-117h-52v117h-141v49h141v107h52v-107h139v-49h-139zM26 41v50h332v-50h-332z" />
    <glyph glyph-name="uni00B2" unicode="&#xb2;" horiz-adv-x="255" 
d="M18 410v30q0 31 14 62t33 61q15 25 33 49.5t33.5 48.5t25.5 48.5t10 49.5q0 28 -9 47t-33 19q-22 0 -32.5 -18.5t-12.5 -60.5h-59q2 70 28.5 103t77.5 33q56 0 80 -33.5t24 -86.5q0 -31 -12 -60.5t-29 -58t-36.5 -55t-34.5 -51.5q-11 -19 -19.5 -36t-9.5 -33h142v-58
h-214z" />
    <glyph glyph-name="uni00B3" unicode="&#xb3;" horiz-adv-x="255" 
d="M232 540q0 -63 -30.5 -99t-83.5 -36q-52 0 -77 30t-30 93l61 4q5 -70 45 -70q26 0 38.5 21.5t12.5 60.5t-15 62.5t-53 23.5h-17v59h17q36 0 50 20t14 51q0 65 -43 65q-36 0 -43 -49l-59 3q5 48 30 75.5t75 27.5q53 0 78.5 -32t25.5 -82q0 -80 -61 -106v-2
q33 -14 49 -41.5t16 -78.5z" />
    <glyph glyph-name="acute" unicode="&#xb4;" horiz-adv-x="293" 
d="M73 577l60 141h86l-87 -141h-59z" />
    <glyph glyph-name="uni00B5" unicode="&#xb5;" horiz-adv-x="364" 
d="M342 2q-20 -6 -38 -6q-58 0 -65 62q-47 -66 -98 -66q-16 0 -28 6v-170h-71v690h73v-380q0 -40 9 -58t32 -18q18 0 37.5 16t36.5 42v398h72v-418q0 -19 5 -26.5t17 -7.5q7 0 18 3v-67z" />
    <glyph glyph-name="paragraph" unicode="&#xb6;" horiz-adv-x="349" 
d="M243 -52v723h-46v-723h-50v420q-25 0 -48 10.5t-40.5 32t-28 55t-10.5 80.5q0 92 40.5 132t113.5 40h153v-47h-34v-723h-50z" />
    <glyph glyph-name="periodcentered" unicode="&#xb7;" horiz-adv-x="188" 
d="M51 205v106h85v-106h-85z" />
    <glyph glyph-name="cedilla" unicode="&#xb8;" horiz-adv-x="293" 
d="M75 -125q12 -4 23 -5.5t20 -1.5q47 0 47 28q0 12 -9 18t-24 6q-9 0 -24 -5l-8 22l10 77l39 -4l-8 -55q5 1 8.5 1h7.5q25 0 42.5 -13t17.5 -45q0 -38 -28 -54.5t-68 -16.5q-26 0 -46 5v43z" />
    <glyph glyph-name="uni00B9" unicode="&#xb9;" horiz-adv-x="255" 
d="M47 410v55h55v346l-62 -12v50l75 28h50v-412h54v-55h-172z" />
    <glyph glyph-name="ordmasculine" unicode="&#xba;" horiz-adv-x="238" 
d="M119 375q-50 0 -75.5 39.5t-25.5 134.5q0 90 24 132t77 42t77 -42t24 -132q0 -95 -25 -134.5t-76 -39.5zM119 426q22 0 31 28.5t9 94.5q0 65 -8.5 94t-31.5 29q-22 0 -31 -29t-9 -94q0 -66 9 -94.5t31 -28.5zM28 250v46h182v-46h-182z" />
    <glyph glyph-name="guillemotright" unicode="&#xbb;" horiz-adv-x="361" 
d="M189 100l74 156l-74 158h70l73 -157l-75 -157h-68zM40 100l75 156l-75 158h70l74 -157l-76 -157h-68z" />
    <glyph glyph-name="onequarter" unicode="&#xbc;" horiz-adv-x="609" 
d="M117 -22l340 760h58l-340 -760h-58zM492 0v106h-128v60l112 301h76v-306h47v-55h-47v-106h-60zM492 368h-2l-75 -207h77v207zM47 251v55h55v346l-62 -12v50l75 28h50v-412h54v-55h-172z" />
    <glyph glyph-name="onehalf" unicode="&#xbd;" horiz-adv-x="632" 
d="M395 0v30q0 31 14 62t33 61q15 25 33 49.5t33.5 48.5t25.5 48.5t10 49.5q0 28 -9 47t-33 19q-22 0 -32.5 -18.5t-12.5 -60.5h-59q2 70 28.5 103t77.5 33q56 0 80 -33.5t24 -86.5q0 -31 -12 -60.5t-29 -58t-36.5 -55t-34.5 -51.5q-11 -19 -19.5 -36t-9.5 -33h142v-58h-214
zM117 -22l340 760h58l-340 -760h-58zM47 251v55h55v346l-62 -12v50l75 28h50v-412h54v-55h-172z" />
    <glyph glyph-name="threequarters" unicode="&#xbe;" horiz-adv-x="609" 
d="M232 381q0 -63 -30.5 -99t-83.5 -36q-52 0 -77 30t-30 93l61 4q5 -70 45 -70q26 0 38.5 21.5t12.5 60.5t-15 62.5t-53 23.5h-17v59h17q36 0 50 20t14 51q0 65 -43 65q-36 0 -43 -49l-59 3q5 48 30 75.5t75 27.5q53 0 78.5 -32t25.5 -82q0 -80 -61 -106v-2
q33 -14 49 -41.5t16 -78.5zM117 -22l340 760h58l-340 -760h-58zM492 0v106h-128v60l112 301h76v-306h47v-55h-47v-106h-60zM492 368h-2l-75 -207h77v207z" />
    <glyph glyph-name="questiondown" unicode="&#xbf;" horiz-adv-x="312" 
d="M298 -48q-7 -70 -41.5 -106.5t-93.5 -36.5q-34 0 -58 10.5t-39 29.5t-21.5 44t-6.5 55q0 48 18.5 88.5t40 79.5t40 77.5t18.5 82.5v25h54v-40q0 -56 -14.5 -95t-32 -72.5t-32 -67.5t-14.5 -80q0 -34 13.5 -51t36.5 -17q27 0 40.5 21t17.5 58zM141 421v105h85v-105h-85z
" />
    <glyph glyph-name="Agrave" unicode="&#xc0;" horiz-adv-x="403" 
d="M305 0l-31 199h-142l-31 -199h-82l126 718h114l128 -718h-82zM143 272h119l-58 375h-3zM175 770l-88 141h87l59 -141h-58z" />
    <glyph glyph-name="Aacute" unicode="&#xc1;" horiz-adv-x="403" 
d="M305 0l-31 199h-142l-31 -199h-82l126 718h114l128 -718h-82zM143 272h119l-58 375h-3zM172 770l60 141h86l-87 -141h-59z" />
    <glyph glyph-name="Acircumflex" unicode="&#xc2;" horiz-adv-x="403" 
d="M305 0l-31 199h-142l-31 -199h-82l126 718h114l128 -718h-82zM143 272h119l-58 375h-3zM263 770l-60 97l-61 -97h-60l72 141h98l71 -141h-60z" />
    <glyph glyph-name="Atilde" unicode="&#xc3;" horiz-adv-x="403" 
d="M305 0l-31 199h-142l-31 -199h-82l126 718h114l128 -718h-82zM143 272h119l-58 375h-3zM337 882q-5 -45 -22.5 -72.5t-54.5 -27.5q-19 0 -34 6t-28 13.5t-24.5 14t-23.5 6.5q-14 0 -21 -11.5t-9 -31.5h-48q5 45 22 72.5t54 27.5q19 0 34.5 -6.5t28 -14t24 -13.5t23.5 -6
q15 0 21.5 11.5t9.5 31.5h48z" />
    <glyph glyph-name="Adieresis" unicode="&#xc4;" horiz-adv-x="403" 
d="M305 0l-31 199h-142l-31 -199h-82l126 718h114l128 -718h-82zM143 272h119l-58 375h-3zM103 786v89h75v-89h-75zM230 786v89h75v-89h-75z" />
    <glyph glyph-name="Aring" unicode="&#xc5;" horiz-adv-x="403" 
d="M305 0l-31 199h-142l-31 -199h-82l126 718h114l128 -718h-82zM143 272h119l-58 375h-3zM253 853q0 21 -14 36t-37 15t-37 -15t-14 -36q0 -20 14 -35t37 -15t37 15t14 35zM291 853q0 -38 -25.5 -63.5t-63.5 -25.5t-63.5 25.5t-25.5 63.5q0 19 6.5 35.5t18.5 28.5t28.5 19
t35.5 7t35.5 -7t28.5 -19t18.5 -28.5t6.5 -35.5z" />
    <glyph glyph-name="AE" unicode="&#xc6;" horiz-adv-x="559" 
d="M276 0v199h-140l-59 -199h-82l223 718h315v-75h-175v-234h131v-74h-131v-260h186v-75h-268zM158 272h118v371h-7z" />
    <glyph glyph-name="Ccedilla" unicode="&#xc7;" horiz-adv-x="391" 
d="M136 -125q12 -4 23 -5.5t20 -1.5q47 0 47 28q0 12 -9 18t-24 6q-9 0 -24 -5l-8 22l7 58q-38 7 -64 34t-42 73t-23 111t-7 148t7.5 150.5t27 115t52 73.5t82.5 26q41 0 70 -16.5t47.5 -47t27.5 -73.5t11 -97h-76q-5 80 -23.5 119t-55.5 39q-48 0 -66.5 -68t-18.5 -221
q0 -80 4.5 -136t14.5 -91t26 -51t40 -16q42 0 60.5 46t22.5 136h76q-2 -60 -11.5 -107t-28 -80t-46.5 -51t-68 -19l-5 -37q5 1 8.5 1h7.5q25 0 42.5 -13t17.5 -45q0 -38 -28 -54.5t-68 -16.5q-26 0 -46 5v43z" />
    <glyph glyph-name="Egrave" unicode="&#xc8;" horiz-adv-x="346" 
d="M51 0v718h269v-75h-188v-234h145v-74h-145v-260h200v-75h-281zM162 770l-88 141h87l59 -141h-58z" />
    <glyph glyph-name="Eacute" unicode="&#xc9;" horiz-adv-x="346" 
d="M51 0v718h269v-75h-188v-234h145v-74h-145v-260h200v-75h-281zM149 770l60 141h86l-87 -141h-59z" />
    <glyph glyph-name="Ecircumflex" unicode="&#xca;" horiz-adv-x="346" 
d="M51 0v718h269v-75h-188v-234h145v-74h-145v-260h200v-75h-281zM245 770l-60 97l-61 -97h-60l72 141h98l71 -141h-60z" />
    <glyph glyph-name="Edieresis" unicode="&#xcb;" horiz-adv-x="346" 
d="M51 0v718h269v-75h-188v-234h145v-74h-145v-260h200v-75h-281zM85 786v89h75v-89h-75zM212 786v89h75v-89h-75z" />
    <glyph glyph-name="Igrave" unicode="&#xcc;" horiz-adv-x="183" 
d="M51 0v718h81v-718h-81zM65 770l-88 141h87l59 -141h-58z" />
    <glyph glyph-name="Iacute" unicode="&#xcd;" horiz-adv-x="183" 
d="M51 0v718h81v-718h-81zM64 770l60 141h86l-87 -141h-59z" />
    <glyph glyph-name="Icircumflex" unicode="&#xce;" horiz-adv-x="183" 
d="M51 0v718h81v-718h-81zM153 770l-60 97l-61 -97h-60l72 141h98l71 -141h-60z" />
    <glyph glyph-name="Idieresis" unicode="&#xcf;" horiz-adv-x="183" 
d="M51 0v718h81v-718h-81zM-9 786v89h75v-89h-75zM118 786v89h75v-89h-75z" />
    <glyph glyph-name="Eth" unicode="&#xd0;" horiz-adv-x="416" 
d="M383 365q0 -92 -11.5 -160t-38 -114t-70 -68.5t-108.5 -22.5h-104v345h-43v62h43v311h91q65 0 111 -18.5t75 -60t42 -109t13 -165.5zM133 345v-269h27q74 0 106.5 68t32.5 221q0 78 -8 131t-25.5 85.5t-45.5 46.5t-68 14h-19v-235h80v-62h-80z" />
    <glyph glyph-name="Ntilde" unicode="&#xd1;" horiz-adv-x="413" 
d="M288 0l-163 561h-2v-561h-72v718h104l133 -467h2v467h73v-718h-75zM349 882q-5 -45 -22.5 -72.5t-54.5 -27.5q-19 0 -34 6t-28 13.5t-24.5 14t-23.5 6.5q-14 0 -21 -11.5t-9 -31.5h-48q5 45 22 72.5t54 27.5q19 0 34.5 -6.5t28 -14t24 -13.5t23.5 -6q15 0 21.5 11.5
t9.5 31.5h48z" />
    <glyph glyph-name="Ograve" unicode="&#xd2;" horiz-adv-x="404" 
d="M202 -8q-91 0 -130.5 90t-39.5 279q0 97 9.5 166.5t30 113.5t53 64.5t77.5 20.5t77.5 -20.5t52.5 -64.5t29.5 -113.5t9.5 -166.5q0 -189 -39 -279t-130 -90zM202 65q43 0 64 69.5t21 226.5q0 79 -4.5 134t-15 90t-26.5 51t-39 16t-39.5 -16t-26.5 -51t-14.5 -90
t-4.5 -134q0 -157 20.5 -226.5t64.5 -69.5zM174 770l-88 141h87l59 -141h-58z" />
    <glyph glyph-name="Oacute" unicode="&#xd3;" horiz-adv-x="404" 
d="M202 -8q-91 0 -130.5 90t-39.5 279q0 97 9.5 166.5t30 113.5t53 64.5t77.5 20.5t77.5 -20.5t52.5 -64.5t29.5 -113.5t9.5 -166.5q0 -189 -39 -279t-130 -90zM202 65q43 0 64 69.5t21 226.5q0 79 -4.5 134t-15 90t-26.5 51t-39 16t-39.5 -16t-26.5 -51t-14.5 -90
t-4.5 -134q0 -157 20.5 -226.5t64.5 -69.5zM173 770l60 141h86l-87 -141h-59z" />
    <glyph glyph-name="Ocircumflex" unicode="&#xd4;" horiz-adv-x="404" 
d="M202 -8q-91 0 -130.5 90t-39.5 279q0 97 9.5 166.5t30 113.5t53 64.5t77.5 20.5t77.5 -20.5t52.5 -64.5t29.5 -113.5t9.5 -166.5q0 -189 -39 -279t-130 -90zM202 65q43 0 64 69.5t21 226.5q0 79 -4.5 134t-15 90t-26.5 51t-39 16t-39.5 -16t-26.5 -51t-14.5 -90
t-4.5 -134q0 -157 20.5 -226.5t64.5 -69.5zM263 770l-60 97l-61 -97h-60l72 141h98l71 -141h-60z" />
    <glyph glyph-name="Otilde" unicode="&#xd5;" horiz-adv-x="404" 
d="M202 -8q-91 0 -130.5 90t-39.5 279q0 97 9.5 166.5t30 113.5t53 64.5t77.5 20.5t77.5 -20.5t52.5 -64.5t29.5 -113.5t9.5 -166.5q0 -189 -39 -279t-130 -90zM202 65q43 0 64 69.5t21 226.5q0 79 -4.5 134t-15 90t-26.5 51t-39 16t-39.5 -16t-26.5 -51t-14.5 -90
t-4.5 -134q0 -157 20.5 -226.5t64.5 -69.5zM341 882q-5 -45 -22.5 -72.5t-54.5 -27.5q-19 0 -34 6t-28 13.5t-24.5 14t-23.5 6.5q-14 0 -21 -11.5t-9 -31.5h-48q5 45 22 72.5t54 27.5q19 0 34.5 -6.5t28 -14t24 -13.5t23.5 -6q15 0 21.5 11.5t9.5 31.5h48z" />
    <glyph glyph-name="Odieresis" unicode="&#xd6;" horiz-adv-x="404" 
d="M202 -8q-91 0 -130.5 90t-39.5 279q0 97 9.5 166.5t30 113.5t53 64.5t77.5 20.5t77.5 -20.5t52.5 -64.5t29.5 -113.5t9.5 -166.5q0 -189 -39 -279t-130 -90zM202 65q43 0 64 69.5t21 226.5q0 79 -4.5 134t-15 90t-26.5 51t-39 16t-39.5 -16t-26.5 -51t-14.5 -90
t-4.5 -134q0 -157 20.5 -226.5t64.5 -69.5zM101 786v89h75v-89h-75zM228 786v89h75v-89h-75z" />
    <glyph glyph-name="multiply" unicode="&#xd7;" 
d="M191 220l-99 -101l-37 37l100 101l-100 101l37 37l99 -100l101 100l37 -37l-100 -101l100 -101l-37 -37z" />
    <glyph glyph-name="Oslash" unicode="&#xd8;" horiz-adv-x="404" 
d="M51 -66l34 123q-53 88 -53 304q0 97 10 166.5t30.5 113.5t52.5 64.5t77 20.5q37 0 67 -15l20 73h65l-34 -122q26 -43 38.5 -117t12.5 -184q0 -189 -40 -279t-129 -90q-38 0 -66 15l-20 -73h-65zM112 361q0 -54 2.5 -94.5t7.5 -73.5h2l123 440q-18 20 -45 20
q-24 0 -41.5 -16t-28 -51t-15.5 -90.5t-5 -134.5zM202 64q46 0 68 70t22 227q0 53 -2 93.5t-7 72.5h-2l-123 -442q18 -21 44 -21z" />
    <glyph glyph-name="Ugrave" unicode="&#xd9;" horiz-adv-x="402" 
d="M273 718h81v-551q0 -91 -37.5 -132.5t-115.5 -41.5t-115 41.5t-37 132.5v551h81v-560q0 -53 18.5 -74t52.5 -21q35 0 53.5 21t18.5 74v560zM174 770l-88 141h87l59 -141h-58z" />
    <glyph glyph-name="Uacute" unicode="&#xda;" horiz-adv-x="402" 
d="M273 718h81v-551q0 -91 -37.5 -132.5t-115.5 -41.5t-115 41.5t-37 132.5v551h81v-560q0 -53 18.5 -74t52.5 -21q35 0 53.5 21t18.5 74v560zM172 770l60 141h86l-87 -141h-59z" />
    <glyph glyph-name="Ucircumflex" unicode="&#xdb;" horiz-adv-x="402" 
d="M273 718h81v-551q0 -91 -37.5 -132.5t-115.5 -41.5t-115 41.5t-37 132.5v551h81v-560q0 -53 18.5 -74t52.5 -21q35 0 53.5 21t18.5 74v560zM263 770l-60 97l-61 -97h-60l72 141h98l71 -141h-60z" />
    <glyph glyph-name="Udieresis" unicode="&#xdc;" horiz-adv-x="402" 
d="M273 718h81v-551q0 -91 -37.5 -132.5t-115.5 -41.5t-115 41.5t-37 132.5v551h81v-560q0 -53 18.5 -74t52.5 -21q35 0 53.5 21t18.5 74v560zM101 786v89h75v-89h-75zM228 786v89h75v-89h-75z" />
    <glyph glyph-name="Yacute" unicode="&#xdd;" horiz-adv-x="375" 
d="M147 0v299l-140 419h85l95 -314h2l100 314h84l-144 -419v-299h-82zM160 770l60 141h86l-87 -141h-59z" />
    <glyph glyph-name="Thorn" unicode="&#xde;" horiz-adv-x="388" 
d="M51 0v718h81v-113h39q99 0 148.5 -48.5t49.5 -152.5q0 -103 -51.5 -154t-140.5 -51h-45v-199h-81zM181 272q29 0 49 10t32 28t17.5 42t5.5 52q0 71 -27.5 98.5t-82.5 27.5h-43v-258h49z" />
    <glyph glyph-name="germandbls" unicode="&#xdf;" horiz-adv-x="363" 
d="M168 69q15 -3 28 -3q29 0 47 28.5t18 104.5q0 74 -24 115t-69 42v68q35 2 54 33.5t19 89.5q0 51 -14.5 81t-49.5 30q-34 0 -47 -28t-13 -84v-546h-72v540q0 36 6 69.5t21 59.5t41 41.5t66 15.5q69 0 102.5 -45.5t33.5 -126.5q0 -56 -17.5 -98t-52.5 -62v-2q50 -23 70 -74
t20 -124q0 -103 -32 -150.5t-94 -47.5q-24 0 -41 4v69z" />
    <glyph glyph-name="agrave" unicode="&#xe0;" horiz-adv-x="332" 
d="M228 0l-3 52q-47 -60 -110 -60q-48 0 -71.5 34.5t-23.5 96.5q0 40 11 73.5t37 60.5q23 23 59.5 42t90.5 41q2 24 2.5 46t-4 39.5t-16 27.5t-33.5 10q-32 0 -48 -26t-18 -68h-65q4 71 35 114t99 43q36 0 59.5 -11t37 -31.5t18.5 -49t5 -62.5v-288l6 -84h-68zM217 278
q-36 -14 -59 -28t-39 -31q-15 -17 -20.5 -40t-5.5 -49q0 -32 11 -52t37 -20q44 0 76 58v162zM145 577l-88 141h87l59 -141h-58z" />
    <glyph glyph-name="aacute" unicode="&#xe1;" horiz-adv-x="332" 
d="M228 0l-3 52q-47 -60 -110 -60q-48 0 -71.5 34.5t-23.5 96.5q0 40 11 73.5t37 60.5q23 23 59.5 42t90.5 41q2 24 2.5 46t-4 39.5t-16 27.5t-33.5 10q-32 0 -48 -26t-18 -68h-65q4 71 35 114t99 43q36 0 59.5 -11t37 -31.5t18.5 -49t5 -62.5v-288l6 -84h-68zM217 278
q-36 -14 -59 -28t-39 -31q-15 -17 -20.5 -40t-5.5 -49q0 -32 11 -52t37 -20q44 0 76 58v162zM141 577l60 141h86l-87 -141h-59z" />
    <glyph glyph-name="acircumflex" unicode="&#xe2;" horiz-adv-x="332" 
d="M228 0l-3 52q-47 -60 -110 -60q-48 0 -71.5 34.5t-23.5 96.5q0 40 11 73.5t37 60.5q23 23 59.5 42t90.5 41q2 24 2.5 46t-4 39.5t-16 27.5t-33.5 10q-32 0 -48 -26t-18 -68h-65q4 71 35 114t99 43q36 0 59.5 -11t37 -31.5t18.5 -49t5 -62.5v-288l6 -84h-68zM217 278
q-36 -14 -59 -28t-39 -31q-15 -17 -20.5 -40t-5.5 -49q0 -32 11 -52t37 -20q44 0 76 58v162zM233 577l-60 97l-61 -97h-60l72 141h98l71 -141h-60z" />
    <glyph glyph-name="atilde" unicode="&#xe3;" horiz-adv-x="332" 
d="M228 0l-3 52q-47 -60 -110 -60q-48 0 -71.5 34.5t-23.5 96.5q0 40 11 73.5t37 60.5q23 23 59.5 42t90.5 41q2 24 2.5 46t-4 39.5t-16 27.5t-33.5 10q-32 0 -48 -26t-18 -68h-65q4 71 35 114t99 43q36 0 59.5 -11t37 -31.5t18.5 -49t5 -62.5v-288l6 -84h-68zM217 278
q-36 -14 -59 -28t-39 -31q-15 -17 -20.5 -40t-5.5 -49q0 -32 11 -52t37 -20q44 0 76 58v162zM303 689q-5 -45 -22.5 -72.5t-54.5 -27.5q-19 0 -34 6t-28 13.5t-24.5 14t-23.5 6.5q-14 0 -21 -11.5t-9 -31.5h-48q5 45 22 72.5t54 27.5q19 0 34.5 -6.5t28 -14t24 -13.5
t23.5 -6q15 0 21.5 11.5t9.5 31.5h48z" />
    <glyph glyph-name="adieresis" unicode="&#xe4;" horiz-adv-x="332" 
d="M228 0l-3 52q-47 -60 -110 -60q-48 0 -71.5 34.5t-23.5 96.5q0 40 11 73.5t37 60.5q23 23 59.5 42t90.5 41q2 24 2.5 46t-4 39.5t-16 27.5t-33.5 10q-32 0 -48 -26t-18 -68h-65q4 71 35 114t99 43q36 0 59.5 -11t37 -31.5t18.5 -49t5 -62.5v-288l6 -84h-68zM217 278
q-36 -14 -59 -28t-39 -31q-15 -17 -20.5 -40t-5.5 -49q0 -32 11 -52t37 -20q44 0 76 58v162zM71 593v89h75v-89h-75zM198 593v89h75v-89h-75z" />
    <glyph glyph-name="aring" unicode="&#xe5;" horiz-adv-x="332" 
d="M228 0l-3 52q-47 -60 -110 -60q-48 0 -71.5 34.5t-23.5 96.5q0 40 11 73.5t37 60.5q23 23 59.5 42t90.5 41q2 24 2.5 46t-4 39.5t-16 27.5t-33.5 10q-32 0 -48 -26t-18 -68h-65q4 71 35 114t99 43q36 0 59.5 -11t37 -31.5t18.5 -49t5 -62.5v-288l6 -84h-68zM217 278
q-36 -14 -59 -28t-39 -31q-15 -17 -20.5 -40t-5.5 -49q0 -32 11 -52t37 -20q44 0 76 58v162zM222 660q0 21 -14 36t-37 15t-37 -15t-14 -36q0 -20 14 -35t37 -15t37 15t14 35zM260 660q0 -38 -25.5 -63.5t-63.5 -25.5t-63.5 25.5t-25.5 63.5q0 19 6.5 35.5t18.5 28.5
t28.5 19t35.5 7t35.5 -7t28.5 -19t18.5 -28.5t6.5 -35.5z" />
    <glyph glyph-name="ae" unicode="&#xe6;" horiz-adv-x="511" 
d="M480 163q-5 -79 -37 -125t-95 -46q-42 0 -68.5 19.5t-40.5 63.5q-26 -44 -58 -63.5t-68 -19.5q-48 0 -70.5 34.5t-22.5 96.5q0 40 10 73t36 61q23 23 57 42t86 41q2 24 2.5 46t-3.5 39.5t-14.5 27.5t-31.5 10q-31 0 -45 -26t-16 -68h-65q4 71 33 114t95 43q38 0 60 -14.5
t33 -40.5q31 55 94 55q36 0 61 -16.5t40 -46t21.5 -71t6.5 -92.5v-24t-1 -28h-195q0 -52 3.5 -88.5t11 -59.5t19.5 -33.5t31 -10.5q18 0 29.5 8.5t18.5 23t10 34t5 41.5h68zM208 278q-34 -14 -54.5 -27t-35.5 -30q-15 -19 -20 -42t-5 -49q0 -33 10.5 -52.5t34.5 -19.5
q38 0 70 58v162zM408 307q0 79 -12.5 118t-46.5 39q-30 0 -46 -36.5t-19 -120.5h124z" />
    <glyph glyph-name="ccedilla" unicode="&#xe7;" horiz-adv-x="329" 
d="M108 -125q12 -4 23 -5.5t20 -1.5q47 0 47 28q0 12 -9 18t-24 6q-9 0 -24 -5l-8 22l7 58q-32 6 -53 26t-34 53.5t-18 79t-5 101.5q0 58 6.5 107.5t22.5 86t44 57t71 20.5q35 0 59.5 -12t40 -33.5t23 -51.5t8.5 -66h-70q-2 43 -15.5 70.5t-45.5 27.5q-20 0 -33.5 -15
t-21.5 -42t-11.5 -65t-3.5 -84q0 -102 13.5 -149t51.5 -47q32 0 47.5 26.5t18.5 80.5h71q-5 -84 -35.5 -126.5t-91.5 -46.5l-5 -38q5 1 8.5 1h7.5q25 0 42.5 -13t17.5 -45q0 -38 -28 -54.5t-68 -16.5q-26 0 -46 5v43z" />
    <glyph glyph-name="egrave" unicode="&#xe8;" horiz-adv-x="337" 
d="M306 163q-5 -79 -38 -125t-99 -46q-74 0 -106.5 62.5t-32.5 206.5q0 131 33 198t107 67q39 0 65 -16.5t41.5 -46t22.5 -71t7 -92.5v-24t-1 -28h-204q1 -104 16 -148t53 -44q19 0 31.5 8.5t20 23t11 34t4.5 41.5h69zM170 464q-31 0 -48 -36t-21 -121h133q0 79 -14 118
t-50 39zM147 577l-88 141h87l59 -141h-58z" />
    <glyph glyph-name="eacute" unicode="&#xe9;" horiz-adv-x="337" 
d="M306 163q-5 -79 -38 -125t-99 -46q-74 0 -106.5 62.5t-32.5 206.5q0 131 33 198t107 67q39 0 65 -16.5t41.5 -46t22.5 -71t7 -92.5v-24t-1 -28h-204q1 -104 16 -148t53 -44q19 0 31.5 8.5t20 23t11 34t4.5 41.5h69zM170 464q-31 0 -48 -36t-21 -121h133q0 79 -14 118
t-50 39zM145 577l60 141h86l-87 -141h-59z" />
    <glyph glyph-name="ecircumflex" unicode="&#xea;" horiz-adv-x="337" 
d="M306 163q-5 -79 -38 -125t-99 -46q-74 0 -106.5 62.5t-32.5 206.5q0 131 33 198t107 67q39 0 65 -16.5t41.5 -46t22.5 -71t7 -92.5v-24t-1 -28h-204q1 -104 16 -148t53 -44q19 0 31.5 8.5t20 23t11 34t4.5 41.5h69zM170 464q-31 0 -48 -36t-21 -121h133q0 79 -14 118
t-50 39zM233 577l-60 97l-61 -97h-60l72 141h98l71 -141h-60z" />
    <glyph glyph-name="edieresis" unicode="&#xeb;" horiz-adv-x="337" 
d="M306 163q-5 -79 -38 -125t-99 -46q-74 0 -106.5 62.5t-32.5 206.5q0 131 33 198t107 67q39 0 65 -16.5t41.5 -46t22.5 -71t7 -92.5v-24t-1 -28h-204q1 -104 16 -148t53 -44q19 0 31.5 8.5t20 23t11 34t4.5 41.5h69zM170 464q-31 0 -48 -36t-21 -121h133q0 79 -14 118
t-50 39zM71 593v89h75v-89h-75zM198 593v89h75v-89h-75z" />
    <glyph glyph-name="igrave" unicode="&#xec;" horiz-adv-x="162" 
d="M45 0v518h72v-518h-72zM55 577l-88 141h87l59 -141h-58z" />
    <glyph glyph-name="iacute" unicode="&#xed;" horiz-adv-x="162" 
d="M45 0v518h72v-518h-72zM54 577l60 141h86l-87 -141h-59z" />
    <glyph glyph-name="icircumflex" unicode="&#xee;" horiz-adv-x="162" 
d="M45 0v518h72v-518h-72zM143 577l-60 97l-61 -97h-60l72 141h98l71 -141h-60z" />
    <glyph glyph-name="idieresis" unicode="&#xef;" horiz-adv-x="162" 
d="M45 0v518h72v-518h-72zM-19 593v89h75v-89h-75zM108 593v89h75v-89h-75z" />
    <glyph glyph-name="eth" unicode="&#xf0;" horiz-adv-x="366" 
d="M241 489q-5 26 -14 53t-20 53l-78 -30l-19 52l72 28l-26 47l62 38l32 -59l56 21l18 -52l-51 -20q26 -60 43.5 -136.5t17.5 -182.5q0 -150 -38.5 -229.5t-122.5 -79.5q-142 0 -142 255q0 132 38.5 197t104.5 65q16 0 33.5 -5t31.5 -16zM255 392q-12 23 -29.5 37.5
t-40.5 14.5q-42 0 -61 -51.5t-19 -145.5t16.5 -142t51.5 -48q45 0 66 65t21 179q0 25 -1.5 47t-3.5 44z" />
    <glyph glyph-name="ntilde" unicode="&#xf1;" horiz-adv-x="347" 
d="M232 0v379q0 41 -9 58.5t-32 17.5q-18 0 -37.5 -15.5t-36.5 -42.5v-397h-72v518h72v-52q46 60 102 60q45 0 65 -31q11 -17 15.5 -42t4.5 -59v-394h-72zM308 689q-5 -45 -22.5 -72.5t-54.5 -27.5q-19 0 -34 6t-28 13.5t-24.5 14t-23.5 6.5q-14 0 -21 -11.5t-9 -31.5h-48
q5 45 22 72.5t54 27.5q19 0 34.5 -6.5t28 -14t24 -13.5t23.5 -6q15 0 21.5 11.5t9.5 31.5h48z" />
    <glyph glyph-name="ograve" unicode="&#xf2;" horiz-adv-x="349" 
d="M174 -8q-74 0 -109 63t-35 204q0 139 34.5 203t109.5 64q76 0 110.5 -64t34.5 -203q0 -141 -35.5 -204t-109.5 -63zM174 57q37 0 54 47t17 155q0 109 -16.5 156t-54.5 47t-54 -46.5t-16 -156.5q0 -108 16.5 -155t53.5 -47zM148 577l-88 141h87l59 -141h-58z" />
    <glyph glyph-name="oacute" unicode="&#xf3;" horiz-adv-x="349" 
d="M174 -8q-74 0 -109 63t-35 204q0 139 34.5 203t109.5 64q76 0 110.5 -64t34.5 -203q0 -141 -35.5 -204t-109.5 -63zM174 57q37 0 54 47t17 155q0 109 -16.5 156t-54.5 47t-54 -46.5t-16 -156.5q0 -108 16.5 -155t53.5 -47zM147 577l60 141h86l-87 -141h-59z" />
    <glyph glyph-name="ocircumflex" unicode="&#xf4;" horiz-adv-x="349" 
d="M174 -8q-74 0 -109 63t-35 204q0 139 34.5 203t109.5 64q76 0 110.5 -64t34.5 -203q0 -141 -35.5 -204t-109.5 -63zM174 57q37 0 54 47t17 155q0 109 -16.5 156t-54.5 47t-54 -46.5t-16 -156.5q0 -108 16.5 -155t53.5 -47zM235 577l-60 97l-61 -97h-60l72 141h98l71 -141
h-60z" />
    <glyph glyph-name="otilde" unicode="&#xf5;" horiz-adv-x="349" 
d="M174 -8q-74 0 -109 63t-35 204q0 139 34.5 203t109.5 64q76 0 110.5 -64t34.5 -203q0 -141 -35.5 -204t-109.5 -63zM174 57q37 0 54 47t17 155q0 109 -16.5 156t-54.5 47t-54 -46.5t-16 -156.5q0 -108 16.5 -155t53.5 -47zM309 689q-5 -45 -22.5 -72.5t-54.5 -27.5
q-19 0 -34 6t-28 13.5t-24.5 14t-23.5 6.5q-14 0 -21 -11.5t-9 -31.5h-48q5 45 22 72.5t54 27.5q19 0 34.5 -6.5t28 -14t24 -13.5t23.5 -6q15 0 21.5 11.5t9.5 31.5h48z" />
    <glyph glyph-name="odieresis" unicode="&#xf6;" horiz-adv-x="349" 
d="M174 -8q-74 0 -109 63t-35 204q0 139 34.5 203t109.5 64q76 0 110.5 -64t34.5 -203q0 -141 -35.5 -204t-109.5 -63zM174 57q37 0 54 47t17 155q0 109 -16.5 156t-54.5 47t-54 -46.5t-16 -156.5q0 -108 16.5 -155t53.5 -47zM73 593v89h75v-89h-75zM200 593v89h75v-89h-75z
" />
    <glyph glyph-name="divide" unicode="&#xf7;" 
d="M26 232v50h332v-50h-332zM160 102v75h64v-75h-64zM160 335v76h64v-76h-64z" />
    <glyph glyph-name="oslash" unicode="&#xf8;" horiz-adv-x="349" 
d="M50 -66l30 100q-50 62 -50 225q0 139 35 203t109 64q26 0 48 -8l20 66h57l-30 -101q50 -62 50 -224q0 -141 -36.5 -204t-108.5 -63q-25 0 -47 8l-19 -66h-58zM100 259q0 -40 2 -69.5t7 -52.5h2l93 317q-14 9 -30 9q-39 0 -56.5 -47t-17.5 -157zM174 56q39 0 57 47.5
t18 155.5q0 39 -2 68.5t-7 52.5h-2l-92 -317q11 -7 28 -7z" />
    <glyph glyph-name="ugrave" unicode="&#xf9;" horiz-adv-x="347" 
d="M230 0v52q-24 -29 -49 -44.5t-54 -15.5q-45 0 -65 32q-11 17 -15.5 41.5t-4.5 59.5v393h73v-379q0 -40 9 -58t32 -18q18 0 37.5 16t36.5 42v397h72v-518h-72zM146 577l-88 141h87l59 -141h-58z" />
    <glyph glyph-name="uacute" unicode="&#xfa;" horiz-adv-x="347" 
d="M230 0v52q-24 -29 -49 -44.5t-54 -15.5q-45 0 -65 32q-11 17 -15.5 41.5t-4.5 59.5v393h73v-379q0 -40 9 -58t32 -18q18 0 37.5 16t36.5 42v397h72v-518h-72zM144 577l60 141h86l-87 -141h-59z" />
    <glyph glyph-name="ucircumflex" unicode="&#xfb;" horiz-adv-x="347" 
d="M230 0v52q-24 -29 -49 -44.5t-54 -15.5q-45 0 -65 32q-11 17 -15.5 41.5t-4.5 59.5v393h73v-379q0 -40 9 -58t32 -18q18 0 37.5 16t36.5 42v397h72v-518h-72zM237 577l-60 97l-61 -97h-60l72 141h98l71 -141h-60z" />
    <glyph glyph-name="udieresis" unicode="&#xfc;" horiz-adv-x="347" 
d="M230 0v52q-24 -29 -49 -44.5t-54 -15.5q-45 0 -65 32q-11 17 -15.5 41.5t-4.5 59.5v393h73v-379q0 -40 9 -58t32 -18q18 0 37.5 16t36.5 42v397h72v-518h-72zM79 593v89h75v-89h-75zM206 593v89h75v-89h-75z" />
    <glyph glyph-name="yacute" unicode="&#xfd;" horiz-adv-x="308" 
d="M187 -14q-11 -52 -24.5 -84.5t-30.5 -50.5t-39 -24.5t-50 -6.5q-8 0 -18.5 0.5t-18.5 2.5v69q19 -3 28 -3q17 0 29.5 5t22.5 18t17.5 35t14.5 56l3 13l-121 502h83l73 -378h2l68 378h79l-118 -532v0zM124 577l60 141h86l-87 -141h-59z" />
    <glyph glyph-name="thorn" unicode="&#xfe;" horiz-adv-x="353" 
d="M45 -172v889h72v-251q17 26 38 43t52 17q60 0 88.5 -64.5t28.5 -203.5q0 -138 -32 -200t-92 -62q-28 0 -47.5 13t-35.5 33v-214h-72zM117 111q12 -17 27 -31t34 -14q35 0 53 44t18 148q0 100 -15 148.5t-48 48.5q-10 0 -20.5 -6t-19.5 -15t-16.5 -19.5t-12.5 -20.5v-283z
" />
    <glyph glyph-name="ydieresis" unicode="&#xff;" horiz-adv-x="308" 
d="M187 -14q-11 -52 -24.5 -84.5t-30.5 -50.5t-39 -24.5t-50 -6.5q-8 0 -18.5 0.5t-18.5 2.5v69q19 -3 28 -3q17 0 29.5 5t22.5 18t17.5 35t14.5 56l3 13l-121 502h83l73 -378h2l68 378h79l-118 -532v0zM57 593v89h75v-89h-75zM184 593v89h75v-89h-75z" />
    <glyph glyph-name="Amacron" unicode="&#x100;" horiz-adv-x="403" 
d="M305 0l-31 199h-142l-31 -199h-82l126 718h114l128 -718h-82zM143 272h119l-58 375h-3zM96 803v56h215v-56h-215z" />
    <glyph glyph-name="amacron" unicode="&#x101;" horiz-adv-x="332" 
d="M228 0l-3 52q-47 -60 -110 -60q-48 0 -71.5 34.5t-23.5 96.5q0 40 11 73.5t37 60.5q23 23 59.5 42t90.5 41q2 24 2.5 46t-4 39.5t-16 27.5t-33.5 10q-32 0 -48 -26t-18 -68h-65q4 71 35 114t99 43q36 0 59.5 -11t37 -31.5t18.5 -49t5 -62.5v-288l6 -84h-68zM217 278
q-36 -14 -59 -28t-39 -31q-15 -17 -20.5 -40t-5.5 -49q0 -32 11 -52t37 -20q44 0 76 58v162zM63 610v56h215v-56h-215z" />
    <glyph glyph-name="Abreve" unicode="&#x102;" horiz-adv-x="403" 
d="M305 0l-31 199h-142l-31 -199h-82l126 718h114l128 -718h-82zM143 272h119l-58 375h-3zM331 899q-5 -53 -35.5 -88t-96.5 -35q-33 0 -55.5 9.5t-37.5 26t-22 39t-8 48.5h47q5 -31 22.5 -49.5t55.5 -18.5q39 0 58.5 18.5t24.5 49.5h47z" />
    <glyph glyph-name="abreve" unicode="&#x103;" horiz-adv-x="332" 
d="M228 0l-3 52q-47 -60 -110 -60q-48 0 -71.5 34.5t-23.5 96.5q0 40 11 73.5t37 60.5q23 23 59.5 42t90.5 41q2 24 2.5 46t-4 39.5t-16 27.5t-33.5 10q-32 0 -48 -26t-18 -68h-65q4 71 35 114t99 43q36 0 59.5 -11t37 -31.5t18.5 -49t5 -62.5v-288l6 -84h-68zM217 278
q-36 -14 -59 -28t-39 -31q-15 -17 -20.5 -40t-5.5 -49q0 -32 11 -52t37 -20q44 0 76 58v162zM298 706q-5 -53 -35.5 -88t-96.5 -35q-33 0 -55.5 9.5t-37.5 26t-22 39t-8 48.5h47q5 -31 22.5 -49.5t55.5 -18.5q39 0 58.5 18.5t24.5 49.5h47z" />
    <glyph glyph-name="Aogonek" unicode="&#x104;" horiz-adv-x="403" 
d="M361 -169q-9 -2 -20 -3t-22 -1q-33 0 -54 15t-21 54q0 32 15 58t44 56l-29 189h-142l-31 -199h-82l126 718h114l128 -718h-35q-25 -25 -40 -47t-15 -46q0 -35 35 -35q13 0 29 4v-45zM143 272h119l-58 375h-3z" />
    <glyph glyph-name="aogonek" unicode="&#x105;" horiz-adv-x="332" 
d="M285 -169q-9 -2 -20 -3t-22 -1q-33 0 -54 15t-21 54q0 32 15 58t44 56l-2 42q-47 -60 -110 -60q-48 0 -71.5 34.5t-23.5 96.5q0 40 11 73.5t37 60.5q23 23 59.5 42t90.5 41q2 24 2.5 46t-4 39.5t-16 27.5t-33.5 10q-32 0 -48 -26t-18 -68h-65q4 71 35 114t99 43
q36 0 59.5 -11t37 -31.5t18.5 -49t5 -62.5v-288l6 -84h-20q-25 -25 -40 -47t-15 -46q0 -35 35 -35q13 0 29 4v-45zM217 278q-36 -14 -59 -28t-39 -31q-15 -17 -20.5 -40t-5.5 -49q0 -32 11 -52t37 -20q44 0 76 58v162z" />
    <glyph glyph-name="Cacute" unicode="&#x106;" horiz-adv-x="391" 
d="M361 249q-4 -122 -40.5 -189.5t-119.5 -67.5q-48 0 -80.5 23.5t-52 69.5t-28 115t-8.5 161q0 83 7.5 150.5t27 115t52 73.5t82.5 26q41 0 70 -16.5t47.5 -47t27.5 -73.5t11 -97h-76q-5 80 -23.5 119t-55.5 39q-48 0 -66.5 -68t-18.5 -221q0 -80 4.5 -136t14.5 -91t26 -51
t40 -16q42 0 60.5 46t22.5 136h76zM172 770l60 141h86l-87 -141h-59z" />
    <glyph glyph-name="cacute" unicode="&#x107;" horiz-adv-x="329" 
d="M306 166q-5 -88 -38.5 -131t-99.5 -43q-41 0 -67.5 18t-42 51.5t-22 82.5t-6.5 111q0 58 6.5 107.5t22.5 86t44 57t71 20.5q35 0 59.5 -12t40 -33.5t23 -51.5t8.5 -66h-70q-2 43 -15.5 70.5t-45.5 27.5q-20 0 -33.5 -15t-21.5 -42t-11.5 -65t-3.5 -84q0 -102 13.5 -149
t51.5 -47q32 0 47.5 26.5t18.5 80.5h71zM145 577l60 141h86l-87 -141h-59z" />
    <glyph glyph-name="Ccircumflex" unicode="&#x108;" horiz-adv-x="391" 
d="M361 249q-4 -122 -40.5 -189.5t-119.5 -67.5q-48 0 -80.5 23.5t-52 69.5t-28 115t-8.5 161q0 83 7.5 150.5t27 115t52 73.5t82.5 26q41 0 70 -16.5t47.5 -47t27.5 -73.5t11 -97h-76q-5 80 -23.5 119t-55.5 39q-48 0 -66.5 -68t-18.5 -221q0 -80 4.5 -136t14.5 -91t26 -51
t40 -16q42 0 60.5 46t22.5 136h76zM264 770l-60 97l-61 -97h-60l72 141h98l71 -141h-60z" />
    <glyph glyph-name="ccircumflex" unicode="&#x109;" horiz-adv-x="329" 
d="M306 166q-5 -88 -38.5 -131t-99.5 -43q-41 0 -67.5 18t-42 51.5t-22 82.5t-6.5 111q0 58 6.5 107.5t22.5 86t44 57t71 20.5q35 0 59.5 -12t40 -33.5t23 -51.5t8.5 -66h-70q-2 43 -15.5 70.5t-45.5 27.5q-20 0 -33.5 -15t-21.5 -42t-11.5 -65t-3.5 -84q0 -102 13.5 -149
t51.5 -47q32 0 47.5 26.5t18.5 80.5h71zM235 577l-60 97l-61 -97h-60l72 141h98l71 -141h-60z" />
    <glyph glyph-name="Cdotaccent" unicode="&#x10a;" horiz-adv-x="391" 
d="M361 249q-4 -122 -40.5 -189.5t-119.5 -67.5q-48 0 -80.5 23.5t-52 69.5t-28 115t-8.5 161q0 83 7.5 150.5t27 115t52 73.5t82.5 26q41 0 70 -16.5t47.5 -47t27.5 -73.5t11 -97h-76q-5 80 -23.5 119t-55.5 39q-48 0 -66.5 -68t-18.5 -221q0 -80 4.5 -136t14.5 -91t26 -51
t40 -16q42 0 60.5 46t22.5 136h76zM165 786v89h75v-89h-75z" />
    <glyph glyph-name="cdotaccent" unicode="&#x10b;" horiz-adv-x="329" 
d="M306 166q-5 -88 -38.5 -131t-99.5 -43q-41 0 -67.5 18t-42 51.5t-22 82.5t-6.5 111q0 58 6.5 107.5t22.5 86t44 57t71 20.5q35 0 59.5 -12t40 -33.5t23 -51.5t8.5 -66h-70q-2 43 -15.5 70.5t-45.5 27.5q-20 0 -33.5 -15t-21.5 -42t-11.5 -65t-3.5 -84q0 -102 13.5 -149
t51.5 -47q32 0 47.5 26.5t18.5 80.5h71zM137 593v89h75v-89h-75z" />
    <glyph glyph-name="Ccaron" unicode="&#x10c;" horiz-adv-x="391" 
d="M361 249q-4 -122 -40.5 -189.5t-119.5 -67.5q-48 0 -80.5 23.5t-52 69.5t-28 115t-8.5 161q0 83 7.5 150.5t27 115t52 73.5t82.5 26q41 0 70 -16.5t47.5 -47t27.5 -73.5t11 -97h-76q-5 80 -23.5 119t-55.5 39q-48 0 -66.5 -68t-18.5 -221q0 -80 4.5 -136t14.5 -91t26 -51
t40 -16q42 0 60.5 46t22.5 136h76zM155 770l-71 141h60l60 -97l61 97h60l-73 -141h-97z" />
    <glyph glyph-name="ccaron" unicode="&#x10d;" horiz-adv-x="329" 
d="M306 166q-5 -88 -38.5 -131t-99.5 -43q-41 0 -67.5 18t-42 51.5t-22 82.5t-6.5 111q0 58 6.5 107.5t22.5 86t44 57t71 20.5q35 0 59.5 -12t40 -33.5t23 -51.5t8.5 -66h-70q-2 43 -15.5 70.5t-45.5 27.5q-20 0 -33.5 -15t-21.5 -42t-11.5 -65t-3.5 -84q0 -102 13.5 -149
t51.5 -47q32 0 47.5 26.5t18.5 80.5h71zM125 577l-71 141h60l60 -97l61 97h60l-73 -141h-97z" />
    <glyph glyph-name="Dcaron" unicode="&#x10e;" horiz-adv-x="416" 
d="M51 0v718h91q65 0 111 -18.5t75 -60t42 -109t13 -165.5q0 -92 -11.5 -160t-38 -114t-70 -68.5t-108.5 -22.5h-104zM160 76q74 0 106.5 68t32.5 221q0 78 -8 131t-25.5 85.5t-45.5 46.5t-68 14h-19v-566h27zM136 770l-71 141h60l60 -97l61 97h60l-73 -141h-97z" />
    <glyph glyph-name="dcaron" unicode="&#x10f;" horiz-adv-x="353" 
d="M252 0l-11 58q-17 -26 -39.5 -46t-54.5 -20q-60 0 -88.5 65t-28.5 204q0 137 31.5 199t92.5 62q27 0 47 -12.5t35 -33.5v242h73v-718h-57zM236 408q-11 17 -26.5 31t-34.5 14q-35 0 -53 -45t-18 -147q0 -101 15 -149.5t48 -48.5q10 0 20.5 6t20 15t16.5 20t12 20v284z
M353 562l24 156h79l-52 -156h-51z" />
    <glyph glyph-name="Dcroat" unicode="&#x110;" horiz-adv-x="416" 
d="M383 365q0 -92 -11.5 -160t-38 -114t-70 -68.5t-108.5 -22.5h-104v345h-43v62h43v311h91q65 0 111 -18.5t75 -60t42 -109t13 -165.5zM133 345v-269h27q74 0 106.5 68t32.5 221q0 78 -8 131t-25.5 85.5t-45.5 46.5t-68 14h-19v-235h80v-62h-80z" />
    <glyph glyph-name="dcroat" unicode="&#x111;" horiz-adv-x="353" 
d="M252 0l-11 58q-17 -26 -39.5 -46t-54.5 -20q-60 0 -88.5 65t-28.5 204q0 137 31.5 199t92.5 62q27 0 47 -12.5t35 -33.5v115h-99v55h99v72h73v-72h44v-55h-44v-591h-57zM236 408q-11 17 -26.5 31t-34.5 14q-35 0 -53 -45t-18 -147q0 -101 15 -149.5t48 -48.5q10 0 20.5 6
t20 15t16.5 20t12 20v284z" />
    <glyph glyph-name="Emacron" unicode="&#x112;" horiz-adv-x="346" 
d="M51 0v718h269v-75h-188v-234h145v-74h-145v-260h200v-75h-281zM78 803v56h215v-56h-215z" />
    <glyph glyph-name="emacron" unicode="&#x113;" horiz-adv-x="337" 
d="M306 163q-5 -79 -38 -125t-99 -46q-74 0 -106.5 62.5t-32.5 206.5q0 131 33 198t107 67q39 0 65 -16.5t41.5 -46t22.5 -71t7 -92.5v-24t-1 -28h-204q1 -104 16 -148t53 -44q19 0 31.5 8.5t20 23t11 34t4.5 41.5h69zM170 464q-31 0 -48 -36t-21 -121h133q0 79 -14 118
t-50 39zM65 610v56h215v-56h-215z" />
    <glyph glyph-name="Ebreve" unicode="&#x114;" horiz-adv-x="346" 
d="M51 0v718h269v-75h-188v-234h145v-74h-145v-260h200v-75h-281zM315 899q-5 -53 -35.5 -88t-96.5 -35q-33 0 -55.5 9.5t-37.5 26t-22 39t-8 48.5h47q5 -31 22.5 -49.5t55.5 -18.5q39 0 58.5 18.5t24.5 49.5h47z" />
    <glyph glyph-name="ebreve" unicode="&#x115;" horiz-adv-x="337" 
d="M306 163q-5 -79 -38 -125t-99 -46q-74 0 -106.5 62.5t-32.5 206.5q0 131 33 198t107 67q39 0 65 -16.5t41.5 -46t22.5 -71t7 -92.5v-24t-1 -28h-204q1 -104 16 -148t53 -44q19 0 31.5 8.5t20 23t11 34t4.5 41.5h69zM170 464q-31 0 -48 -36t-21 -121h133q0 79 -14 118
t-50 39zM299 706q-5 -53 -35.5 -88t-96.5 -35q-33 0 -55.5 9.5t-37.5 26t-22 39t-8 48.5h47q5 -31 22.5 -49.5t55.5 -18.5q39 0 58.5 18.5t24.5 49.5h47z" />
    <glyph glyph-name="Edotaccent" unicode="&#x116;" horiz-adv-x="346" 
d="M51 0v718h269v-75h-188v-234h145v-74h-145v-260h200v-75h-281zM147 786v89h75v-89h-75z" />
    <glyph glyph-name="edotaccent" unicode="&#x117;" horiz-adv-x="337" 
d="M306 163q-5 -79 -38 -125t-99 -46q-74 0 -106.5 62.5t-32.5 206.5q0 131 33 198t107 67q39 0 65 -16.5t41.5 -46t22.5 -71t7 -92.5v-24t-1 -28h-204q1 -104 16 -148t53 -44q19 0 31.5 8.5t20 23t11 34t4.5 41.5h69zM170 464q-31 0 -48 -36t-21 -121h133q0 79 -14 118
t-50 39zM133 593v89h75v-89h-75z" />
    <glyph glyph-name="Eogonek" unicode="&#x118;" horiz-adv-x="346" 
d="M322 0q-25 -25 -40 -47t-15 -46q0 -35 35 -35q13 0 29 4v-45q-9 -2 -20 -3t-22 -1q-33 0 -54 15t-21 54q0 29 12.5 53.5t36.5 50.5h-212v718h269v-75h-188v-234h145v-74h-145v-260h200v-75h-10z" />
    <glyph glyph-name="eogonek" unicode="&#x119;" horiz-adv-x="337" 
d="M284 -169q-10 -2 -20.5 -3t-21.5 -1q-33 0 -54.5 16t-21.5 59q0 24 8.5 47t22.5 46q-14 -3 -28 -3q-74 0 -106.5 62.5t-32.5 206.5q0 131 33 198t107 67q39 0 65 -16.5t41.5 -46t22.5 -71t7 -92.5v-24t-1 -28h-204q1 -104 16 -148t53 -44q19 0 31.5 8.5t20 23t11 34
t4.5 41.5h69q-6 -88 -44 -132q-20 -31 -31 -60t-11 -58q0 -41 35 -41q13 0 29 4v-45zM170 464q-31 0 -48 -36t-21 -121h133q0 79 -14 118t-50 39z" />
    <glyph glyph-name="Ecaron" unicode="&#x11a;" horiz-adv-x="346" 
d="M51 0v718h269v-75h-188v-234h145v-74h-145v-260h200v-75h-281zM137 770l-71 141h60l60 -97l61 97h60l-73 -141h-97z" />
    <glyph glyph-name="ecaron" unicode="&#x11b;" horiz-adv-x="337" 
d="M306 163q-5 -79 -38 -125t-99 -46q-74 0 -106.5 62.5t-32.5 206.5q0 131 33 198t107 67q39 0 65 -16.5t41.5 -46t22.5 -71t7 -92.5v-24t-1 -28h-204q1 -104 16 -148t53 -44q19 0 31.5 8.5t20 23t11 34t4.5 41.5h69zM170 464q-31 0 -48 -36t-21 -121h133q0 79 -14 118
t-50 39zM124 577l-71 141h60l60 -97l61 97h60l-73 -141h-97z" />
    <glyph glyph-name="Gcircumflex" unicode="&#x11c;" horiz-adv-x="406" 
d="M298 0v51h-2q-23 -33 -49.5 -46t-58.5 -13q-41 0 -70.5 20.5t-48.5 65t-28 114.5t-9 169q0 85 9 152.5t29 114.5t53.5 72.5t81.5 25.5q44 0 73.5 -17t48 -48t26.5 -74t10 -95h-76q-5 79 -23.5 118t-58.5 39q-50 0 -69 -69.5t-19 -218.5q0 -81 3.5 -137.5t13.5 -91t27 -50
t44 -15.5q22 0 38 12t26 31.5t14.5 45t4.5 51.5v33.5t-2 30.5h-87v71h167v-342h-68zM267 770l-60 97l-61 -97h-60l72 141h98l71 -141h-60z" />
    <glyph glyph-name="gcircumflex" unicode="&#x11d;" horiz-adv-x="329" 
d="M287 340q0 -91 -31.5 -140.5t-95.5 -49.5q-30 0 -51 10q-8 -9 -13 -18.5t-5 -22.5q0 -16 17.5 -24t43.5 -13t56 -11.5t56 -20t43.5 -37t17.5 -64.5q0 -61 -43.5 -95t-118.5 -34q-69 0 -110.5 27t-41.5 80q0 34 14 57.5t45 41.5v2q-21 5 -31 21.5t-10 42.5q0 49 44 95
q-40 47 -40 153q0 89 31 137.5t96 48.5q57 0 90 -42q14 20 34.5 34.5t42.5 13.5v-75q-35 0 -54 -18q14 -42 14 -99zM215 340q0 67 -13 96t-42 29t-42.5 -29t-13.5 -96q0 -69 13.5 -97.5t42.5 -28.5t42 28.5t13 97.5zM253 -58q0 18 -9.5 30t-26 20.5t-37.5 13t-45 7.5
q-26 -10 -40.5 -28t-14.5 -44q0 -30 22 -46.5t63 -16.5q40 0 64 16t24 48zM224 577l-60 97l-61 -97h-60l72 141h98l71 -141h-60z" />
    <glyph glyph-name="Gbreve" unicode="&#x11e;" horiz-adv-x="406" 
d="M298 0v51h-2q-23 -33 -49.5 -46t-58.5 -13q-41 0 -70.5 20.5t-48.5 65t-28 114.5t-9 169q0 85 9 152.5t29 114.5t53.5 72.5t81.5 25.5q44 0 73.5 -17t48 -48t26.5 -74t10 -95h-76q-5 79 -23.5 118t-58.5 39q-50 0 -69 -69.5t-19 -218.5q0 -81 3.5 -137.5t13.5 -91t27 -50
t44 -15.5q22 0 38 12t26 31.5t14.5 45t4.5 51.5v33.5t-2 30.5h-87v71h167v-342h-68zM335 899q-5 -53 -35.5 -88t-96.5 -35q-33 0 -55.5 9.5t-37.5 26t-22 39t-8 48.5h47q5 -31 22.5 -49.5t55.5 -18.5q39 0 58.5 18.5t24.5 49.5h47z" />
    <glyph glyph-name="gbreve" unicode="&#x11f;" horiz-adv-x="329" 
d="M287 340q0 -91 -31.5 -140.5t-95.5 -49.5q-30 0 -51 10q-8 -9 -13 -18.5t-5 -22.5q0 -16 17.5 -24t43.5 -13t56 -11.5t56 -20t43.5 -37t17.5 -64.5q0 -61 -43.5 -95t-118.5 -34q-69 0 -110.5 27t-41.5 80q0 34 14 57.5t45 41.5v2q-21 5 -31 21.5t-10 42.5q0 49 44 95
q-40 47 -40 153q0 89 31 137.5t96 48.5q57 0 90 -42q14 20 34.5 34.5t42.5 13.5v-75q-35 0 -54 -18q14 -42 14 -99zM215 340q0 67 -13 96t-42 29t-42.5 -29t-13.5 -96q0 -69 13.5 -97.5t42.5 -28.5t42 28.5t13 97.5zM253 -58q0 18 -9.5 30t-26 20.5t-37.5 13t-45 7.5
q-26 -10 -40.5 -28t-14.5 -44q0 -30 22 -46.5t63 -16.5q40 0 64 16t24 48zM296 706q-5 -53 -35.5 -88t-96.5 -35q-33 0 -55.5 9.5t-37.5 26t-22 39t-8 48.5h47q5 -31 22.5 -49.5t55.5 -18.5q39 0 58.5 18.5t24.5 49.5h47z" />
    <glyph glyph-name="Gdotaccent" unicode="&#x120;" horiz-adv-x="406" 
d="M298 0v51h-2q-23 -33 -49.5 -46t-58.5 -13q-41 0 -70.5 20.5t-48.5 65t-28 114.5t-9 169q0 85 9 152.5t29 114.5t53.5 72.5t81.5 25.5q44 0 73.5 -17t48 -48t26.5 -74t10 -95h-76q-5 79 -23.5 118t-58.5 39q-50 0 -69 -69.5t-19 -218.5q0 -81 3.5 -137.5t13.5 -91t27 -50
t44 -15.5q22 0 38 12t26 31.5t14.5 45t4.5 51.5v33.5t-2 30.5h-87v71h167v-342h-68zM168 786v89h75v-89h-75z" />
    <glyph glyph-name="gdotaccent" unicode="&#x121;" horiz-adv-x="329" 
d="M287 340q0 -91 -31.5 -140.5t-95.5 -49.5q-30 0 -51 10q-8 -9 -13 -18.5t-5 -22.5q0 -16 17.5 -24t43.5 -13t56 -11.5t56 -20t43.5 -37t17.5 -64.5q0 -61 -43.5 -95t-118.5 -34q-69 0 -110.5 27t-41.5 80q0 34 14 57.5t45 41.5v2q-21 5 -31 21.5t-10 42.5q0 49 44 95
q-40 47 -40 153q0 89 31 137.5t96 48.5q57 0 90 -42q14 20 34.5 34.5t42.5 13.5v-75q-35 0 -54 -18q14 -42 14 -99zM215 340q0 67 -13 96t-42 29t-42.5 -29t-13.5 -96q0 -69 13.5 -97.5t42.5 -28.5t42 28.5t13 97.5zM253 -58q0 18 -9.5 30t-26 20.5t-37.5 13t-45 7.5
q-26 -10 -40.5 -28t-14.5 -44q0 -30 22 -46.5t63 -16.5q40 0 64 16t24 48zM126 593v89h75v-89h-75z" />
    <glyph glyph-name="Gcommaaccent" unicode="&#x122;" horiz-adv-x="406" 
d="M298 0v51h-2q-23 -33 -49.5 -46t-58.5 -13q-41 0 -70.5 20.5t-48.5 65t-28 114.5t-9 169q0 85 9 152.5t29 114.5t53.5 72.5t81.5 25.5q44 0 73.5 -17t48 -48t26.5 -74t10 -95h-76q-5 79 -23.5 118t-58.5 39q-50 0 -69 -69.5t-19 -218.5q0 -81 3.5 -137.5t13.5 -91t27 -50
t44 -15.5q22 0 38 12t26 31.5t14.5 45t4.5 51.5v33.5t-2 30.5h-87v71h167v-342h-68zM162 -183l34 76h-27v76h72v-74l-37 -78h-42z" />
    <glyph glyph-name="gcommaaccent" unicode="&#x123;" horiz-adv-x="329" 
d="M287 340q0 -91 -31.5 -140.5t-95.5 -49.5q-30 0 -51 10q-8 -9 -13 -18.5t-5 -22.5q0 -16 17.5 -24t43.5 -13t56 -11.5t56 -20t43.5 -37t17.5 -64.5q0 -61 -43.5 -95t-118.5 -34q-69 0 -110.5 27t-41.5 80q0 34 14 57.5t45 41.5v2q-21 5 -31 21.5t-10 42.5q0 49 44 95
q-40 47 -40 153q0 89 31 137.5t96 48.5q57 0 90 -42q14 20 34.5 34.5t42.5 13.5v-75q-35 0 -54 -18q14 -42 14 -99zM215 340q0 67 -13 96t-42 29t-42.5 -29t-13.5 -96q0 -69 13.5 -97.5t42.5 -28.5t42 28.5t13 97.5zM253 -58q0 18 -9.5 30t-26 20.5t-37.5 13t-45 7.5
q-26 -10 -40.5 -28t-14.5 -44q0 -30 22 -46.5t63 -16.5q40 0 64 16t24 48zM125 555v74l36 77h43l-35 -76h28v-75h-72z" />
    <glyph glyph-name="Hcircumflex" unicode="&#x124;" horiz-adv-x="406" 
d="M275 0v339h-143v-339h-81v718h81v-305h143v305h80v-718h-80zM264 770l-60 97l-61 -97h-60l72 141h98l71 -141h-60z" />
    <glyph glyph-name="hcircumflex" unicode="&#x125;" horiz-adv-x="347" 
d="M232 0v379q0 41 -9 58.5t-32 17.5q-18 0 -37.5 -15.5t-36.5 -41.5v-398h-72v718h72v-251q47 59 102 59q45 0 65 -31q11 -17 15.5 -42t4.5 -59v-394h-72zM145 744l-60 97l-61 -97h-60l72 141h98l71 -141h-60z" />
    <glyph glyph-name="Hbar" unicode="&#x126;" horiz-adv-x="406" 
d="M275 0v339h-143v-339h-81v573h-43v62h43v83h81v-83h143v83h80v-83h43v-62h-43v-573h-80zM275 413v160h-143v-160h143z" />
    <glyph glyph-name="hbar" unicode="&#x127;" horiz-adv-x="347" 
d="M232 0v379q0 41 -9 58.5t-32 17.5q-18 0 -37.5 -15.5t-36.5 -41.5v-398h-72v591h-43v55h43v72h72v-72h105v-55h-105v-124q47 59 102 59q45 0 65 -31q11 -17 15.5 -42t4.5 -59v-394h-72z" />
    <glyph glyph-name="Itilde" unicode="&#x128;" horiz-adv-x="183" 
d="M51 0v718h81v-718h-81zM228 882q-5 -45 -22.5 -72.5t-54.5 -27.5q-19 0 -34 6t-28 13.5t-24.5 14t-23.5 6.5q-14 0 -21 -11.5t-9 -31.5h-48q5 45 22 72.5t54 27.5q19 0 34.5 -6.5t28 -14t24 -13.5t23.5 -6q15 0 21.5 11.5t9.5 31.5h48z" />
    <glyph glyph-name="itilde" unicode="&#x129;" horiz-adv-x="162" 
d="M45 0v518h72v-518h-72zM217 689q-5 -45 -22.5 -72.5t-54.5 -27.5q-19 0 -34 6t-28 13.5t-24.5 14t-23.5 6.5q-14 0 -21 -11.5t-9 -31.5h-48q5 45 22 72.5t54 27.5q19 0 34.5 -6.5t28 -14t24 -13.5t23.5 -6q15 0 21.5 11.5t9.5 31.5h48z" />
    <glyph glyph-name="Imacron" unicode="&#x12a;" horiz-adv-x="183" 
d="M51 0v718h81v-718h-81zM-15 803v56h215v-56h-215z" />
    <glyph glyph-name="imacron" unicode="&#x12b;" horiz-adv-x="162" 
d="M45 0v518h72v-518h-72zM-25 610v56h215v-56h-215z" />
    <glyph glyph-name="Iogonek" unicode="&#x12e;" horiz-adv-x="183" 
d="M149 -169q-10 -2 -20.5 -3t-21.5 -1q-33 0 -54.5 15t-21.5 55q0 29 11 54t31 49h-22v718h81v-718h-13q-17 -23 -25.5 -45t-8.5 -47q0 -36 35 -36q13 0 29 4v-45z" />
    <glyph glyph-name="iogonek" unicode="&#x12f;" horiz-adv-x="162" 
d="M139 -169q-10 -2 -20.5 -3t-21.5 -1q-33 0 -54.5 15t-21.5 55q0 29 11 54t31 49h-18v518h72v-518h-8q-16 -23 -25 -45t-9 -47q0 -36 35 -36q13 0 29 4v-45zM42 623v94h78v-94h-78z" />
    <glyph glyph-name="Idotaccent" unicode="&#x130;" horiz-adv-x="183" 
d="M51 0v718h81v-718h-81zM55 786v89h75v-89h-75z" />
    <glyph glyph-name="dotlessi" unicode="&#x131;" horiz-adv-x="162" 
d="M45 0v518h72v-518h-72z" />
    <glyph glyph-name="IJ" unicode="&#x132;" horiz-adv-x="436" 
d="M51 0v718h81v-718h-81zM386 162q0 -84 -31.5 -127t-109.5 -43q-10 0 -22 1t-25 3v78q11 -3 21.5 -4t18.5 -1q37 0 51.5 22.5t14.5 65.5v561h82v-556z" />
    <glyph glyph-name="ij" unicode="&#x133;" horiz-adv-x="328" 
d="M42 623v94h78v-94h-78zM45 0v518h72v-518h-72zM285 -59q0 -59 -23 -90t-79 -31q-8 0 -15.5 0.5t-20.5 2.5v68q7 -1 13 -1.5t13 -0.5q39 0 39 47v582h73v-577zM209 623v94h79v-94h-79z" />
    <glyph glyph-name="Jcircumflex" unicode="&#x134;" horiz-adv-x="253" 
d="M203 162q0 -84 -31.5 -127t-109.5 -43q-10 0 -22 1t-25 3v78q11 -3 21.5 -4t18.5 -1q37 0 51.5 22.5t14.5 65.5v561h82v-556v0zM222 770l-60 97l-61 -97h-60l72 141h98l71 -141h-60z" />
    <glyph glyph-name="jcircumflex" unicode="&#x135;" horiz-adv-x="167" 
d="M123 -59q0 -59 -23 -90t-79 -31q-8 0 -15.5 0.5t-20.5 2.5v68q7 -1 13 -1.5t13 -0.5q39 0 39 47v582h73v-577v0zM149 577l-60 97l-61 -97h-60l72 141h98l71 -141h-60z" />
    <glyph glyph-name="Kcommaaccent" unicode="&#x136;" horiz-adv-x="381" 
d="M302 0l-110 367l-63 -127v-240h-78v718h78v-335h2l156 335h83l-124 -258l140 -460h-84zM164 -183l34 76h-27v76h72v-74l-37 -78h-42z" />
    <glyph glyph-name="kcommaaccent" unicode="&#x137;" horiz-adv-x="331" 
d="M253 0l-87 273l-51 -86v-187h-70v718h70v-418h2l114 218h78l-92 -167l113 -351h-77zM133 -183l34 76h-27v76h72v-74l-37 -78h-42z" />
    <glyph glyph-name="Lacute" unicode="&#x139;" horiz-adv-x="329" 
d="M51 0v718h81v-643h192v-75h-273zM64 770l60 141h86l-87 -141h-59z" />
    <glyph glyph-name="lacute" unicode="&#x13a;" horiz-adv-x="162" 
d="M45 0v718h72v-718h-72zM51 744l60 141h86l-87 -141h-59z" />
    <glyph glyph-name="Lcommaaccent" unicode="&#x13b;" horiz-adv-x="329" 
d="M51 0v718h81v-643h192v-75h-273zM143 -183l34 76h-27v76h72v-74l-37 -78h-42z" />
    <glyph glyph-name="lcommaaccent" unicode="&#x13c;" horiz-adv-x="162" 
d="M45 0v718h72v-718h-72zM39 -183l34 76h-27v76h72v-74l-37 -78h-42z" />
    <glyph glyph-name="Lcaron" unicode="&#x13d;" horiz-adv-x="329" 
d="M51 0v718h81v-643h192v-75h-273zM183 562l24 156h79l-52 -156h-51z" />
    <glyph glyph-name="lcaron" unicode="&#x13e;" horiz-adv-x="162" 
d="M45 0v718h72v-718h-72zM161 562l24 156h79l-52 -156h-51z" />
    <glyph glyph-name="Ldot" unicode="&#x13f;" horiz-adv-x="329" 
d="M51 0v718h81v-643h192v-75h-273zM218 342v89h75v-89h-75z" />
    <glyph glyph-name="ldot" unicode="&#x140;" horiz-adv-x="262" 
d="M45 0v718h72v-718h-72zM175 206v89h75v-89h-75z" />
    <glyph glyph-name="Lslash" unicode="&#x141;" horiz-adv-x="329" 
d="M132 345v-270h192v-75h-273v302l-43 -22v70l43 22v346h81v-303l134 70v-70z" />
    <glyph glyph-name="lslash" unicode="&#x142;" horiz-adv-x="180" 
d="M54 0v308l-49 -22v65l49 22v345h72v-313l50 22v-65l-50 -22v-340h-72z" />
    <glyph glyph-name="Nacute" unicode="&#x143;" horiz-adv-x="413" 
d="M288 0l-163 561h-2v-561h-72v718h104l133 -467h2v467h73v-718h-75zM177 770l60 141h86l-87 -141h-59z" />
    <glyph glyph-name="nacute" unicode="&#x144;" horiz-adv-x="347" 
d="M232 0v379q0 41 -9 58.5t-32 17.5q-18 0 -37.5 -15.5t-36.5 -42.5v-397h-72v518h72v-52q46 60 102 60q45 0 65 -31q11 -17 15.5 -42t4.5 -59v-394h-72zM137 577l60 141h86l-87 -141h-59z" />
    <glyph glyph-name="Ncommaaccent" unicode="&#x145;" horiz-adv-x="413" 
d="M288 0l-163 561h-2v-561h-72v718h104l133 -467h2v467h73v-718h-75zM164 -183l34 76h-27v76h72v-74l-37 -78h-42z" />
    <glyph glyph-name="ncommaaccent" unicode="&#x146;" horiz-adv-x="347" 
d="M232 0v379q0 41 -9 58.5t-32 17.5q-18 0 -37.5 -15.5t-36.5 -42.5v-397h-72v518h72v-52q46 60 102 60q45 0 65 -31q11 -17 15.5 -42t4.5 -59v-394h-72zM131 -183l34 76h-27v76h72v-74l-37 -78h-42z" />
    <glyph glyph-name="Ncaron" unicode="&#x147;" horiz-adv-x="413" 
d="M288 0l-163 561h-2v-561h-72v718h104l133 -467h2v467h73v-718h-75zM165 770l-71 141h60l60 -97l61 97h60l-73 -141h-97z" />
    <glyph glyph-name="ncaron" unicode="&#x148;" horiz-adv-x="347" 
d="M232 0v379q0 41 -9 58.5t-32 17.5q-18 0 -37.5 -15.5t-36.5 -42.5v-397h-72v518h72v-52q46 60 102 60q45 0 65 -31q11 -17 15.5 -42t4.5 -59v-394h-72zM120 577l-71 141h60l60 -97l61 97h60l-73 -141h-97z" />
    <glyph glyph-name="napostrophe" unicode="&#x149;" horiz-adv-x="480" 
d="M232 0v379q0 41 -9 58.5t-32 17.5q-18 0 -37.5 -15.5t-36.5 -42.5v-397h-72v518h72v-52q46 60 102 60q45 0 65 -31q11 -17 15.5 -42t4.5 -59v-394h-72zM-5 569l24 156h79l-52 -156h-51z" />
    <glyph glyph-name="Omacron" unicode="&#x14c;" horiz-adv-x="404" 
d="M202 -8q-91 0 -130.5 90t-39.5 279q0 97 9.5 166.5t30 113.5t53 64.5t77.5 20.5t77.5 -20.5t52.5 -64.5t29.5 -113.5t9.5 -166.5q0 -189 -39 -279t-130 -90zM202 65q43 0 64 69.5t21 226.5q0 79 -4.5 134t-15 90t-26.5 51t-39 16t-39.5 -16t-26.5 -51t-14.5 -90
t-4.5 -134q0 -157 20.5 -226.5t64.5 -69.5zM96 803v56h215v-56h-215z" />
    <glyph glyph-name="omacron" unicode="&#x14d;" horiz-adv-x="349" 
d="M174 -8q-74 0 -109 63t-35 204q0 139 34.5 203t109.5 64q76 0 110.5 -64t34.5 -203q0 -141 -35.5 -204t-109.5 -63zM174 57q37 0 54 47t17 155q0 109 -16.5 156t-54.5 47t-54 -46.5t-16 -156.5q0 -108 16.5 -155t53.5 -47zM67 610v56h215v-56h-215z" />
    <glyph glyph-name="Obreve" unicode="&#x14e;" horiz-adv-x="404" 
d="M202 -8q-91 0 -130.5 90t-39.5 279q0 97 9.5 166.5t30 113.5t53 64.5t77.5 20.5t77.5 -20.5t52.5 -64.5t29.5 -113.5t9.5 -166.5q0 -189 -39 -279t-130 -90zM202 65q43 0 64 69.5t21 226.5q0 79 -4.5 134t-15 90t-26.5 51t-39 16t-39.5 -16t-26.5 -51t-14.5 -90
t-4.5 -134q0 -157 20.5 -226.5t64.5 -69.5zM330 899q-5 -53 -35.5 -88t-96.5 -35q-33 0 -55.5 9.5t-37.5 26t-22 39t-8 48.5h47q5 -31 22.5 -49.5t55.5 -18.5q39 0 58.5 18.5t24.5 49.5h47z" />
    <glyph glyph-name="obreve" unicode="&#x14f;" horiz-adv-x="349" 
d="M174 -8q-74 0 -109 63t-35 204q0 139 34.5 203t109.5 64q76 0 110.5 -64t34.5 -203q0 -141 -35.5 -204t-109.5 -63zM174 57q37 0 54 47t17 155q0 109 -16.5 156t-54.5 47t-54 -46.5t-16 -156.5q0 -108 16.5 -155t53.5 -47zM302 706q-5 -53 -35.5 -88t-96.5 -35
q-33 0 -55.5 9.5t-37.5 26t-22 39t-8 48.5h47q5 -31 22.5 -49.5t55.5 -18.5q39 0 58.5 18.5t24.5 49.5h47z" />
    <glyph glyph-name="Ohungarumlaut" unicode="&#x150;" horiz-adv-x="404" 
d="M202 -8q-91 0 -130.5 90t-39.5 279q0 97 9.5 166.5t30 113.5t53 64.5t77.5 20.5t77.5 -20.5t52.5 -64.5t29.5 -113.5t9.5 -166.5q0 -189 -39 -279t-130 -90zM202 65q43 0 64 69.5t21 226.5q0 79 -4.5 134t-15 90t-26.5 51t-39 16t-39.5 -16t-26.5 -51t-14.5 -90
t-4.5 -134q0 -157 20.5 -226.5t64.5 -69.5zM238 770l59 141h87l-88 -141h-58zM107 770l59 141h87l-88 -141h-58z" />
    <glyph glyph-name="ohungarumlaut" unicode="&#x151;" horiz-adv-x="349" 
d="M174 -8q-74 0 -109 63t-35 204q0 139 34.5 203t109.5 64q76 0 110.5 -64t34.5 -203q0 -141 -35.5 -204t-109.5 -63zM174 57q37 0 54 47t17 155q0 109 -16.5 156t-54.5 47t-54 -46.5t-16 -156.5q0 -108 16.5 -155t53.5 -47zM209 577l59 141h87l-88 -141h-58zM78 577
l59 141h87l-88 -141h-58z" />
    <glyph glyph-name="OE" unicode="&#x152;" horiz-adv-x="576" 
d="M288 0q-34 -8 -60 -8q-97 0 -146.5 90t-49.5 279q0 97 13 166.5t37.5 113.5t61 64.5t84.5 20.5q14 0 32 -2t35 -6h255v-75h-175v-234h131v-74h-131v-260h186v-75h-273zM290 552q0 54 -8 71q-15 30 -53 30q-62 0 -87 -70t-25 -221q0 -146 25.5 -221t86.5 -75q26 0 38 8.5
t18 26.5q3 11 4 35t1 60v356z" />
    <glyph glyph-name="oe" unicode="&#x153;" horiz-adv-x="534" 
d="M503 163q-5 -79 -36.5 -125t-94.5 -46q-30 0 -56 14t-44 59h-2q-18 -42 -42 -57.5t-59 -15.5q-70 0 -104.5 63t-34.5 204q0 139 33.5 203t105.5 64q35 0 62 -17t41 -56h2q9 23 20.5 37t25 22t27.5 11t28 3q36 0 60.5 -16.5t40 -46t22 -71t6.5 -92.5q0 -10 -0.5 -24
t-1.5 -28h-194q0 -52 3 -88.5t10.5 -59.5t19.5 -33.5t31 -10.5q18 0 29.5 8.5t18.5 23t10 34t5 41.5h68zM170 57q35 0 50 47t15 155q0 109 -15 156t-50 47q-36 0 -51 -47t-15 -156q0 -108 15.5 -155t50.5 -47zM431 307q1 79 -11.5 118t-47.5 39q-30 0 -46 -36.5t-18 -120.5
h123z" />
    <glyph glyph-name="Racute" unicode="&#x154;" horiz-adv-x="395" 
d="M285 0l-93 326h-60v-326h-81v718h119q97 0 144 -43t47 -141q0 -70 -24.5 -114.5t-69.5 -63.5l106 -356h-88zM184 397q45 0 69 29t24 101q0 35 -7 58.5t-21 37t-35 19t-50 5.5h-32v-250h52zM144 770l60 141h86l-87 -141h-59z" />
    <glyph glyph-name="racute" unicode="&#x155;" horiz-adv-x="231" 
d="M45 0v518h72v-74q20 38 43 60t59 22h6.5t9.5 -1v-80q-5 2 -9 2h-7q-33 0 -57 -19t-45 -62v-366h-72zM95 577l60 141h86l-87 -141h-59z" />
    <glyph glyph-name="Rcommaaccent" unicode="&#x156;" horiz-adv-x="395" 
d="M285 0l-93 326h-60v-326h-81v718h119q97 0 144 -43t47 -141q0 -70 -24.5 -114.5t-69.5 -63.5l106 -356h-88zM184 397q45 0 69 29t24 101q0 35 -7 58.5t-21 37t-35 19t-50 5.5h-32v-250h52zM152 -183l34 76h-27v76h72v-74l-37 -78h-42z" />
    <glyph glyph-name="rcommaaccent" unicode="&#x157;" horiz-adv-x="231" 
d="M45 0v518h72v-74q20 38 43 60t59 22h6.5t9.5 -1v-80q-5 2 -9 2h-7q-33 0 -57 -19t-45 -62v-366h-72zM39 -183l34 76h-27v76h72v-74l-37 -78h-42z" />
    <glyph glyph-name="Rcaron" unicode="&#x158;" horiz-adv-x="395" 
d="M285 0l-93 326h-60v-326h-81v718h119q97 0 144 -43t47 -141q0 -70 -24.5 -114.5t-69.5 -63.5l106 -356h-88zM184 397q45 0 69 29t24 101q0 35 -7 58.5t-21 37t-35 19t-50 5.5h-32v-250h52zM138 770l-71 141h60l60 -97l61 97h60l-73 -141h-97z" />
    <glyph glyph-name="rcaron" unicode="&#x159;" horiz-adv-x="231" 
d="M45 0v518h72v-74q20 38 43 60t59 22h6.5t9.5 -1v-80q-5 2 -9 2h-7q-33 0 -57 -19t-45 -62v-366h-72zM88 577l-71 141h60l60 -97l61 97h60l-73 -141h-97z" />
    <glyph glyph-name="Sacute" unicode="&#x15a;" horiz-adv-x="354" 
d="M247 526q-3 63 -20.5 95.5t-54.5 32.5q-34 0 -49.5 -21.5t-15.5 -60.5q0 -42 16.5 -73.5t41 -58.5t53.5 -53t53.5 -57.5t41 -70.5t16.5 -92q0 -81 -40 -128t-115 -47q-77 0 -112 48t-40 148l76 3q5 -69 22.5 -98t55.5 -29q35 0 54.5 25t19.5 69q0 43 -16.5 75.5t-41 60.5
t-53 54t-53 57t-41 69t-16.5 90q0 75 36.5 118.5t104.5 43.5q78 0 112 -51.5t38 -145.5zM141 770l60 141h86l-87 -141h-59z" />
    <glyph glyph-name="sacute" unicode="&#x15b;" horiz-adv-x="302" 
d="M206 376q-4 44 -18.5 65.5t-43.5 21.5q-25 0 -38 -16t-13 -39q0 -25 13.5 -45t34.5 -38t44.5 -36.5t44.5 -41t34.5 -52t13.5 -69.5q0 -63 -34 -98.5t-93 -35.5q-128 0 -132 155h66q2 -46 17.5 -69t47.5 -23q27 0 43 17t16 47t-13.5 52t-34 41t-44 37.5t-44 40.5t-34 49.5
t-13.5 65.5q0 56 31 88.5t87 32.5q66 0 94.5 -39.5t32.5 -109.5zM116 577l60 141h86l-87 -141h-59z" />
    <glyph glyph-name="Scircumflex" unicode="&#x15c;" horiz-adv-x="354" 
d="M247 526q-3 63 -20.5 95.5t-54.5 32.5q-34 0 -49.5 -21.5t-15.5 -60.5q0 -42 16.5 -73.5t41 -58.5t53.5 -53t53.5 -57.5t41 -70.5t16.5 -92q0 -81 -40 -128t-115 -47q-77 0 -112 48t-40 148l76 3q5 -69 22.5 -98t55.5 -29q35 0 54.5 25t19.5 69q0 43 -16.5 75.5t-41 60.5
t-53 54t-53 57t-41 69t-16.5 90q0 75 36.5 118.5t104.5 43.5q78 0 112 -51.5t38 -145.5zM237 770l-60 97l-61 -97h-60l72 141h98l71 -141h-60z" />
    <glyph glyph-name="scircumflex" unicode="&#x15d;" horiz-adv-x="302" 
d="M206 376q-4 44 -18.5 65.5t-43.5 21.5q-25 0 -38 -16t-13 -39q0 -25 13.5 -45t34.5 -38t44.5 -36.5t44.5 -41t34.5 -52t13.5 -69.5q0 -63 -34 -98.5t-93 -35.5q-128 0 -132 155h66q2 -46 17.5 -69t47.5 -23q27 0 43 17t16 47t-13.5 52t-34 41t-44 37.5t-44 40.5t-34 49.5
t-13.5 65.5q0 56 31 88.5t87 32.5q66 0 94.5 -39.5t32.5 -109.5zM212 577l-60 97l-61 -97h-60l72 141h98l71 -141h-60z" />
    <glyph glyph-name="Scedilla" unicode="&#x15e;" horiz-adv-x="354" 
d="M113 -125q12 -4 23 -5.5t20 -1.5q47 0 47 28q0 12 -9 18t-24 6q-9 0 -24 -5l-8 22l7 57q-61 8 -89.5 56t-33.5 138l76 3q5 -69 22.5 -98t55.5 -29q35 0 54.5 25t19.5 69q0 43 -16.5 75.5t-41 60.5t-53 54t-53 57t-41 69t-16.5 90q0 75 36.5 118.5t104.5 43.5
q78 0 112 -51.5t38 -145.5l-73 -3q-3 63 -20.5 95.5t-54.5 32.5q-34 0 -49.5 -21.5t-15.5 -60.5q0 -42 16.5 -73.5t41 -58.5t53.5 -53t53.5 -57.5t41 -70.5t16.5 -92q0 -78 -37 -124.5t-108 -50.5l-5 -37q5 1 8.5 1h7.5q25 0 42.5 -13t17.5 -45q0 -38 -28 -54.5t-68 -16.5
q-26 0 -46 5v43z" />
    <glyph glyph-name="scedilla" unicode="&#x15f;" horiz-adv-x="302" 
d="M84 -125q12 -4 23 -5.5t20 -1.5q47 0 47 28q0 12 -9 18t-24 6q-9 0 -24 -5l-8 22l7 58q-94 18 -97 152h66q2 -46 17.5 -69t47.5 -23q27 0 43 17t16 47t-13.5 52t-34 41t-44 37.5t-44 40.5t-34 49.5t-13.5 65.5q0 56 31 88.5t87 32.5q66 0 94.5 -39.5t32.5 -109.5l-65 -1
q-4 44 -18.5 65.5t-43.5 21.5q-25 0 -38 -16t-13 -39q0 -25 13.5 -45t34.5 -38t44.5 -36.5t44.5 -41t34.5 -52t13.5 -69.5q0 -63 -33 -97.5t-90 -36.5l-5 -37q5 1 8.5 1h7.5q25 0 42.5 -13t17.5 -45q0 -38 -28 -54.5t-68 -16.5q-26 0 -46 5v43z" />
    <glyph glyph-name="Scaron" unicode="&#x160;" horiz-adv-x="354" 
d="M247 526q-3 63 -20.5 95.5t-54.5 32.5q-34 0 -49.5 -21.5t-15.5 -60.5q0 -42 16.5 -73.5t41 -58.5t53.5 -53t53.5 -57.5t41 -70.5t16.5 -92q0 -81 -40 -128t-115 -47q-77 0 -112 48t-40 148l76 3q5 -69 22.5 -98t55.5 -29q35 0 54.5 25t19.5 69q0 43 -16.5 75.5t-41 60.5
t-53 54t-53 57t-41 69t-16.5 90q0 75 36.5 118.5t104.5 43.5q78 0 112 -51.5t38 -145.5zM126 770l-71 141h60l60 -97l61 97h60l-73 -141h-97z" />
    <glyph glyph-name="scaron" unicode="&#x161;" horiz-adv-x="302" 
d="M206 376q-4 44 -18.5 65.5t-43.5 21.5q-25 0 -38 -16t-13 -39q0 -25 13.5 -45t34.5 -38t44.5 -36.5t44.5 -41t34.5 -52t13.5 -69.5q0 -63 -34 -98.5t-93 -35.5q-128 0 -132 155h66q2 -46 17.5 -69t47.5 -23q27 0 43 17t16 47t-13.5 52t-34 41t-44 37.5t-44 40.5t-34 49.5
t-13.5 65.5q0 56 31 88.5t87 32.5q66 0 94.5 -39.5t32.5 -109.5zM100 577l-71 141h60l60 -97l61 97h60l-73 -141h-97z" />
    <glyph glyph-name="Tcommaaccent" unicode="&#x162;" horiz-adv-x="335" 
d="M128 0v643h-117v75h314v-75h-116v-643h-81zM126 -183l34 76h-27v76h72v-74l-37 -78h-42z" />
    <glyph glyph-name="tcommaaccent" unicode="&#x163;" horiz-adv-x="241" 
d="M231 5q-20 -5 -36 -7t-34 -2q-51 0 -71.5 26t-20.5 83v349h-65v64h65v170h72v-170h90v-64h-90v-334q0 -29 10 -41.5t32 -12.5q11 0 23.5 2t24.5 7v-70zM106 -183l34 76h-27v76h72v-74l-37 -78h-42z" />
    <glyph glyph-name="Tcaron" unicode="&#x164;" horiz-adv-x="335" 
d="M128 0v643h-117v75h314v-75h-116v-643h-81zM119 770l-71 141h60l60 -97l61 97h60l-73 -141h-97z" />
    <glyph glyph-name="tcaron" unicode="&#x165;" horiz-adv-x="241" 
d="M231 5q-20 -5 -36 -7t-34 -2q-51 0 -71.5 26t-20.5 83v349h-65v64h65v170h72v-170h90v-64h-90v-334q0 -29 10 -41.5t32 -12.5q11 0 23.5 2t24.5 7v-70zM172 562l24 156h79l-52 -156h-51z" />
    <glyph glyph-name="Tbar" unicode="&#x166;" horiz-adv-x="335" 
d="M128 0v338h-71v62h71v243h-117v75h314v-75h-116v-243h71v-62h-71v-338h-81z" />
    <glyph glyph-name="tbar" unicode="&#x167;" horiz-adv-x="241" 
d="M141 262v-142q0 -29 10 -41.5t32 -12.5q11 0 23.5 2t24.5 7v-70q-20 -5 -36 -7t-34 -2q-51 0 -71.5 26t-20.5 83v157h-65v55h65v137h-65v64h65v170h72v-170h90v-64h-90v-137h90v-55h-90z" />
    <glyph glyph-name="Utilde" unicode="&#x168;" horiz-adv-x="402" 
d="M273 718h81v-551q0 -91 -37.5 -132.5t-115.5 -41.5t-115 41.5t-37 132.5v551h81v-560q0 -53 18.5 -74t52.5 -21q35 0 53.5 21t18.5 74v560zM343 882q-5 -45 -22.5 -72.5t-54.5 -27.5q-19 0 -34 6t-28 13.5t-24.5 14t-23.5 6.5q-14 0 -21 -11.5t-9 -31.5h-48q5 45 22 72.5
t54 27.5q19 0 34.5 -6.5t28 -14t24 -13.5t23.5 -6q15 0 21.5 11.5t9.5 31.5h48z" />
    <glyph glyph-name="utilde" unicode="&#x169;" horiz-adv-x="347" 
d="M230 0v52q-24 -29 -49 -44.5t-54 -15.5q-45 0 -65 32q-11 17 -15.5 41.5t-4.5 59.5v393h73v-379q0 -40 9 -58t32 -18q18 0 37.5 16t36.5 42v397h72v-518h-72zM315 689q-5 -45 -22.5 -72.5t-54.5 -27.5q-19 0 -34 6t-28 13.5t-24.5 14t-23.5 6.5q-14 0 -21 -11.5t-9 -31.5
h-48q5 45 22 72.5t54 27.5q19 0 34.5 -6.5t28 -14t24 -13.5t23.5 -6q15 0 21.5 11.5t9.5 31.5h48z" />
    <glyph glyph-name="Umacron" unicode="&#x16a;" horiz-adv-x="402" 
d="M273 718h81v-551q0 -91 -37.5 -132.5t-115.5 -41.5t-115 41.5t-37 132.5v551h81v-560q0 -53 18.5 -74t52.5 -21q35 0 53.5 21t18.5 74v560zM94 803v56h215v-56h-215z" />
    <glyph glyph-name="umacron" unicode="&#x16b;" horiz-adv-x="347" 
d="M230 0v52q-24 -29 -49 -44.5t-54 -15.5q-45 0 -65 32q-11 17 -15.5 41.5t-4.5 59.5v393h73v-379q0 -40 9 -58t32 -18q18 0 37.5 16t36.5 42v397h72v-518h-72zM71 610v56h215v-56h-215z" />
    <glyph glyph-name="Ubreve" unicode="&#x16c;" horiz-adv-x="402" 
d="M273 718h81v-551q0 -91 -37.5 -132.5t-115.5 -41.5t-115 41.5t-37 132.5v551h81v-560q0 -53 18.5 -74t52.5 -21q35 0 53.5 21t18.5 74v560zM330 899q-5 -53 -35.5 -88t-96.5 -35q-33 0 -55.5 9.5t-37.5 26t-22 39t-8 48.5h47q5 -31 22.5 -49.5t55.5 -18.5q39 0 58.5 18.5
t24.5 49.5h47z" />
    <glyph glyph-name="ubreve" unicode="&#x16d;" horiz-adv-x="347" 
d="M230 0v52q-24 -29 -49 -44.5t-54 -15.5q-45 0 -65 32q-11 17 -15.5 41.5t-4.5 59.5v393h73v-379q0 -40 9 -58t32 -18q18 0 37.5 16t36.5 42v397h72v-518h-72zM306 706q-5 -53 -35.5 -88t-96.5 -35q-33 0 -55.5 9.5t-37.5 26t-22 39t-8 48.5h47q5 -31 22.5 -49.5
t55.5 -18.5q39 0 58.5 18.5t24.5 49.5h47z" />
    <glyph glyph-name="Uring" unicode="&#x16e;" horiz-adv-x="402" 
d="M273 718h81v-551q0 -91 -37.5 -132.5t-115.5 -41.5t-115 41.5t-37 132.5v551h81v-560q0 -53 18.5 -74t52.5 -21q35 0 53.5 21t18.5 74v560zM252 853q0 21 -14 36t-37 15t-37 -15t-14 -36q0 -20 14 -35t37 -15t37 15t14 35zM290 853q0 -38 -25.5 -63.5t-63.5 -25.5
t-63.5 25.5t-25.5 63.5q0 19 6.5 35.5t18.5 28.5t28.5 19t35.5 7t35.5 -7t28.5 -19t18.5 -28.5t6.5 -35.5z" />
    <glyph glyph-name="uring" unicode="&#x16f;" horiz-adv-x="347" 
d="M230 0v52q-24 -29 -49 -44.5t-54 -15.5q-45 0 -65 32q-11 17 -15.5 41.5t-4.5 59.5v393h73v-379q0 -40 9 -58t32 -18q18 0 37.5 16t36.5 42v397h72v-518h-72zM229 660q0 21 -14 36t-37 15t-37 -15t-14 -36q0 -20 14 -35t37 -15t37 15t14 35zM267 660q0 -38 -25.5 -63.5
t-63.5 -25.5t-63.5 25.5t-25.5 63.5q0 19 6.5 35.5t18.5 28.5t28.5 19t35.5 7t35.5 -7t28.5 -19t18.5 -28.5t6.5 -35.5z" />
    <glyph glyph-name="Uhungarumlaut" unicode="&#x170;" horiz-adv-x="402" 
d="M273 718h81v-551q0 -91 -37.5 -132.5t-115.5 -41.5t-115 41.5t-37 132.5v551h81v-560q0 -53 18.5 -74t52.5 -21q35 0 53.5 21t18.5 74v560zM236 770l59 141h87l-88 -141h-58zM105 770l59 141h87l-88 -141h-58z" />
    <glyph glyph-name="uhungarumlaut" unicode="&#x171;" horiz-adv-x="347" 
d="M230 0v52q-24 -29 -49 -44.5t-54 -15.5q-45 0 -65 32q-11 17 -15.5 41.5t-4.5 59.5v393h73v-379q0 -40 9 -58t32 -18q18 0 37.5 16t36.5 42v397h72v-518h-72zM210 577l59 141h87l-88 -141h-58zM79 577l59 141h87l-88 -141h-58z" />
    <glyph glyph-name="Uogonek" unicode="&#x172;" horiz-adv-x="402" 
d="M298 -169q-9 -2 -20 -3t-22 -1q-33 0 -54 15.5t-21 56.5q0 26 10 49t28 46q-5 -1 -9 -1h-9q-78 0 -115 41.5t-37 132.5v551h81v-560q0 -53 18.5 -74t52.5 -21q35 0 53.5 21t18.5 74v560h81v-551q0 -114 -63 -153q-26 -26 -41.5 -52.5t-15.5 -51.5q0 -38 35 -38q13 0 29 4
v-45z" />
    <glyph glyph-name="uogonek" unicode="&#x173;" horiz-adv-x="347" 
d="M281 0q-25 -25 -40 -47t-15 -46q0 -35 35 -35q13 0 29 4v-45q-9 -2 -20 -3t-22 -1q-33 0 -54 15t-21 54q0 32 14.5 57t42.5 54v45q-24 -29 -49 -44.5t-54 -15.5q-45 0 -65 32q-11 17 -15.5 41.5t-4.5 59.5v393h73v-379q0 -40 9 -58t32 -18q18 0 37.5 16t36.5 42v397h72
v-518h-21z" />
    <glyph glyph-name="Wcircumflex" unicode="&#x174;" horiz-adv-x="549" 
d="M340 0l-65 550h-2l-62 -550h-88l-102 718h81l63 -538h2l63 538h90l64 -538h2l62 538h81l-100 -718h-89zM337 770l-60 97l-61 -97h-60l72 141h98l71 -141h-60z" />
    <glyph glyph-name="wcircumflex" unicode="&#x175;" horiz-adv-x="475" 
d="M300 0l-61 371h-2l-60 -371h-70l-99 518h75l59 -365h2l58 365h74l59 -365h2l57 365h75l-99 -518h-70zM300 577l-60 97l-61 -97h-60l72 141h98l71 -141h-60z" />
    <glyph glyph-name="Ycircumflex" unicode="&#x176;" horiz-adv-x="375" 
d="M147 0v299l-140 419h85l95 -314h2l100 314h84l-144 -419v-299h-82zM252 770l-60 97l-61 -97h-60l72 141h98l71 -141h-60z" />
    <glyph glyph-name="ycircumflex" unicode="&#x177;" horiz-adv-x="308" 
d="M187 -14q-11 -52 -24.5 -84.5t-30.5 -50.5t-39 -24.5t-50 -6.5q-8 0 -18.5 0.5t-18.5 2.5v69q19 -3 28 -3q17 0 29.5 5t22.5 18t17.5 35t14.5 56l3 13l-121 502h83l73 -378h2l68 378h79l-118 -532v0zM217 577l-60 97l-61 -97h-60l72 141h98l71 -141h-60z" />
    <glyph glyph-name="Ydieresis" unicode="&#x178;" horiz-adv-x="375" 
d="M147 0v299l-140 419h85l95 -314h2l100 314h84l-144 -419v-299h-82zM91 786v89h75v-89h-75zM218 786v89h75v-89h-75z" />
    <glyph glyph-name="Zacute" unicode="&#x179;" horiz-adv-x="338" 
d="M12 0v77l217 566h-200v75h289v-74l-217 -569h217v-75h-306zM141 770l60 141h86l-87 -141h-59z" />
    <glyph glyph-name="zacute" unicode="&#x17a;" horiz-adv-x="283" 
d="M13 0v63l168 391h-154v64h235v-62l-169 -391h172v-65h-252zM113 577l60 141h86l-87 -141h-59z" />
    <glyph glyph-name="Zdotaccent" unicode="&#x17b;" horiz-adv-x="338" 
d="M12 0v77l217 566h-200v75h289v-74l-217 -569h217v-75h-306zM135 786v89h75v-89h-75z" />
    <glyph glyph-name="zdotaccent" unicode="&#x17c;" horiz-adv-x="283" 
d="M13 0v63l168 391h-154v64h235v-62l-169 -391h172v-65h-252zM107 593v89h75v-89h-75z" />
    <glyph glyph-name="Zcaron" unicode="&#x17d;" horiz-adv-x="338" 
d="M12 0v77l217 566h-200v75h289v-74l-217 -569h217v-75h-306zM125 770l-71 141h60l60 -97l61 97h60l-73 -141h-97z" />
    <glyph glyph-name="zcaron" unicode="&#x17e;" horiz-adv-x="283" 
d="M13 0v63l168 391h-154v64h235v-62l-169 -391h172v-65h-252zM97 577l-71 141h60l60 -97l61 97h60l-73 -141h-97z" />
    <glyph glyph-name="florin" unicode="&#x192;" 
d="M20 -105q17 -5 33 -5q18 0 30 8t19.5 26t12 46.5t8.5 68.5l29 334h-95v55h99l8 84q5 51 11.5 91t20.5 67t38 41.5t63 14.5q23 0 50 -7l-10 -68q-17 5 -31 5q-17 0 -28.5 -8t-19 -26t-12 -46.5t-7.5 -68.5l-7 -79h92v-55h-97l-29 -339q-5 -51 -11.5 -91t-21 -67
t-38.5 -41.5t-64 -14.5q-26 0 -53 7z" />
    <glyph glyph-name="Scommaaccent" unicode="&#x218;" horiz-adv-x="354" 
d="M247 526q-3 63 -20.5 95.5t-54.5 32.5q-34 0 -49.5 -21.5t-15.5 -60.5q0 -42 16.5 -73.5t41 -58.5t53.5 -53t53.5 -57.5t41 -70.5t16.5 -92q0 -81 -40 -128t-115 -47q-77 0 -112 48t-40 148l76 3q5 -69 22.5 -98t55.5 -29q35 0 54.5 25t19.5 69q0 43 -16.5 75.5t-41 60.5
t-53 54t-53 57t-41 69t-16.5 90q0 75 36.5 118.5t104.5 43.5q78 0 112 -51.5t38 -145.5zM135 -183l34 76h-27v76h72v-74l-37 -78h-42z" />
    <glyph glyph-name="scommaaccent" unicode="&#x219;" horiz-adv-x="302" 
d="M206 376q-4 44 -18.5 65.5t-43.5 21.5q-25 0 -38 -16t-13 -39q0 -25 13.5 -45t34.5 -38t44.5 -36.5t44.5 -41t34.5 -52t13.5 -69.5q0 -63 -34 -98.5t-93 -35.5q-128 0 -132 155h66q2 -46 17.5 -69t47.5 -23q27 0 43 17t16 47t-13.5 52t-34 41t-44 37.5t-44 40.5t-34 49.5
t-13.5 65.5q0 56 31 88.5t87 32.5q66 0 94.5 -39.5t32.5 -109.5zM108 -183l34 76h-27v76h72v-74l-37 -78h-42z" />
    <glyph glyph-name="uni021A" unicode="&#x21a;" horiz-adv-x="335" 
d="M128 0v643h-117v75h314v-75h-116v-643h-81zM126 -183l34 76h-27v76h72v-74l-37 -78h-42z" />
    <glyph glyph-name="uni021B" unicode="&#x21b;" horiz-adv-x="241" 
d="M231 5q-20 -5 -36 -7t-34 -2q-51 0 -71.5 26t-20.5 83v349h-65v64h65v170h72v-170h90v-64h-90v-334q0 -29 10 -41.5t32 -12.5q11 0 23.5 2t24.5 7v-70zM106 -183l34 76h-27v76h72v-74l-37 -78h-42z" />
    <glyph glyph-name="uni0237" unicode="&#x237;" horiz-adv-x="167" 
d="M123 -59q0 -59 -23 -90t-79 -31q-8 0 -15.5 0.5t-20.5 2.5v68q7 -1 13 -1.5t13 -0.5q39 0 39 47v582h73v-577v0z" />
    <glyph glyph-name="circumflex" unicode="&#x2c6;" horiz-adv-x="293" 
d="M207 577l-60 97l-61 -97h-60l72 141h98l71 -141h-60z" />
    <glyph glyph-name="caron" unicode="&#x2c7;" horiz-adv-x="293" 
d="M97 577l-71 141h60l60 -97l61 97h60l-73 -141h-97z" />
    <glyph glyph-name="uni02C9" unicode="&#x2c9;" horiz-adv-x="293" 
d="M39 610v56h215v-56h-215z" />
    <glyph glyph-name="breve" unicode="&#x2d8;" horiz-adv-x="293" 
d="M274 706q-5 -53 -35.5 -88t-96.5 -35q-33 0 -55.5 9.5t-37.5 26t-22 39t-8 48.5h47q5 -31 22.5 -49.5t55.5 -18.5q39 0 58.5 18.5t24.5 49.5h47z" />
    <glyph glyph-name="dotaccent" unicode="&#x2d9;" horiz-adv-x="293" 
d="M108 593v89h75v-89h-75z" />
    <glyph glyph-name="ring" unicode="&#x2da;" horiz-adv-x="293" 
d="M197 660q0 21 -14 36t-37 15t-37 -15t-14 -36q0 -20 14 -35t37 -15t37 15t14 35zM235 660q0 -38 -25.5 -63.5t-63.5 -25.5t-63.5 25.5t-25.5 63.5q0 19 6.5 35.5t18.5 28.5t28.5 19t35.5 7t35.5 -7t28.5 -19t18.5 -28.5t6.5 -35.5z" />
    <glyph glyph-name="ogonek" unicode="&#x2db;" horiz-adv-x="293" 
d="M205 -169q-9 -2 -20 -3t-22 -1q-33 0 -54 15t-21 54q0 38 21 68t62 70l30 -29q-27 -27 -43.5 -50t-16.5 -48q0 -35 35 -35q13 0 29 4v-45z" />
    <glyph glyph-name="tilde" unicode="&#x2dc;" horiz-adv-x="293" 
d="M279 689q-5 -45 -22.5 -72.5t-54.5 -27.5q-19 0 -34 6t-28 13.5t-24.5 14t-23.5 6.5q-14 0 -21 -11.5t-9 -31.5h-48q5 45 22 72.5t54 27.5q19 0 34.5 -6.5t28 -14t24 -13.5t23.5 -6q15 0 21.5 11.5t9.5 31.5h48z" />
    <glyph glyph-name="hungarumlaut" unicode="&#x2dd;" horiz-adv-x="293" 
d="M139 577l59 141h87l-88 -141h-58zM8 577l59 141h87l-88 -141h-58z" />
    <glyph glyph-name="Delta" unicode="&#x394;" horiz-adv-x="398" 
d="M17 0v82l124 636h114l126 -636v-82h-364zM200 648h-3l-102 -566h206z" />
    <glyph glyph-name="Omega" unicode="&#x3a9;" horiz-adv-x="438" 
d="M240 0v82q17 37 30 80t22 88.5t14 92.5t5 93q0 105 -20 160.5t-72 55.5q-53 0 -72.5 -56t-19.5 -160q0 -46 4.5 -93t13.5 -92.5t22 -88.5t30 -80v-82h-170v82h100q-39 75 -61.5 168.5t-22.5 193.5q0 140 40.5 211t135.5 71q94 0 135 -71t41 -211q0 -100 -23 -193.5
t-62 -168.5h101v-82h-171z" />
    <glyph glyph-name="mu" unicode="&#x3bc;" horiz-adv-x="364" 
d="M342 2q-20 -6 -38 -6q-58 0 -65 62q-47 -66 -98 -66q-16 0 -28 6v-170h-71v690h73v-380q0 -40 9 -58t32 -18q18 0 37.5 16t36.5 42v398h72v-418q0 -19 5 -26.5t17 -7.5q7 0 18 3v-67z" />
    <glyph glyph-name="pi" unicode="&#x3c0;" horiz-adv-x="424" 
d="M397 3q-16 -5 -29.5 -6t-27.5 -1q-21 0 -37 5.5t-27 19.5t-16.5 37.5t-5.5 58.5v323h-85l-37 -440h-69l39 439q-53 -4 -90 -41v85q17 16 42.5 25.5t63.5 9.5h279v-78h-75v-315q0 -36 11.5 -47.5t30.5 -11.5q8 0 15 1t18 4v-68z" />
    <glyph glyph-name="endash" unicode="&#x2013;" horiz-adv-x="420" 
d="M23 236v45h374v-45h-374z" />
    <glyph glyph-name="emdash" unicode="&#x2014;" horiz-adv-x="634" 
d="M0 236v45h634v-45h-634z" />
    <glyph glyph-name="quoteleft" unicode="&#x2018;" horiz-adv-x="188" 
d="M48 472v103l53 143h51l-51 -141h32v-105h-85z" />
    <glyph glyph-name="quoteright" unicode="&#x2019;" horiz-adv-x="188" 
d="M36 472l51 141h-32v105h85v-103l-53 -143h-51z" />
    <glyph glyph-name="quotesinglbase" unicode="&#x201a;" horiz-adv-x="188" 
d="M36 -141l51 141h-32v105h85v-103l-53 -143h-51z" />
    <glyph glyph-name="quotedblleft" unicode="&#x201c;" horiz-adv-x="331" 
d="M191 472v103l54 143h50l-50 -141h31v-105h-85zM48 472v103l53 143h51l-51 -141h32v-105h-85z" />
    <glyph glyph-name="quotedblright" unicode="&#x201d;" horiz-adv-x="332" 
d="M36 472l51 141h-32v105h85v-103l-53 -143h-51zM180 472l50 141h-31v105h85v-103l-54 -143h-50z" />
    <glyph glyph-name="quotedblbase" unicode="&#x201e;" horiz-adv-x="332" 
d="M36 -141l51 141h-32v105h85v-103l-53 -143h-51zM180 -141l50 141h-31v105h85v-103l-54 -143h-50z" />
    <glyph glyph-name="dagger" unicode="&#x2020;" horiz-adv-x="352" 
d="M164 -81l-24 405l18 171l-127 -18v71l127 -19l-16 197h68l-18 -197l129 18v-70l-129 18l20 -171l-24 -405h-24z" />
    <glyph glyph-name="daggerdbl" unicode="&#x2021;" horiz-adv-x="352" 
d="M142 -81l18 196l-129 -17v70l129 -19l-20 173l18 173l-127 -18v71l127 -19l-16 197h68l-18 -197l129 18v-70l-129 18l20 -173l-19 -173l128 19v-71l-128 18l16 -196h-67z" />
    <glyph glyph-name="bullet" unicode="&#x2022;" horiz-adv-x="437" 
d="M398 359q0 -37 -14 -69.5t-38.5 -57t-57.5 -38.5t-70 -14t-69.5 14t-57 38.5t-38.5 57t-14 69.5t14 70t38.5 57.5t57 38.5t69.5 14t70 -14t57.5 -38.5t38.5 -57.5t14 -70z" />
    <glyph glyph-name="ellipsis" unicode="&#x2026;" horiz-adv-x="665" 
d="M43 0v105h85v-105h-85zM531 0v105h84v-105h-84zM287 0v105h85v-105h-85z" />
    <glyph glyph-name="perthousand" unicode="&#x2030;" horiz-adv-x="705" 
d="M23 -22l341 760h58l-341 -760h-58zM320 43q31 0 46.5 18.5t15.5 47.5t-15.5 48.5t-46.5 19.5t-46.5 -19.5t-15.5 -48.5t15.5 -47.5t46.5 -18.5zM320 -8q-53 0 -84.5 34t-31.5 83q0 51 31.5 85t84.5 34q52 0 84 -34t32 -85q0 -49 -32 -83t-84 -34zM129 541q31 0 46.5 19
t15.5 48q0 28 -15.5 47.5t-46.5 19.5t-46.5 -19.5t-15.5 -47.5q0 -29 15.5 -48t46.5 -19zM129 490q-53 0 -84.5 34t-31.5 84q0 51 31.5 84.5t84.5 33.5q52 0 84 -33.5t32 -84.5q0 -25 -8.5 -46.5t-23.5 -37.5t-36.5 -25t-47.5 -9zM575 43q31 0 47 18.5t16 47.5t-16 48.5
t-47 19.5q-30 0 -46 -19.5t-16 -48.5t16 -47.5t46 -18.5zM575 -8q-53 0 -84 34t-31 83q0 51 31 85t84 34q52 0 84 -34t32 -85q0 -49 -32 -83t-84 -34z" />
    <glyph glyph-name="guilsinglleft" unicode="&#x2039;" horiz-adv-x="213" 
d="M105 100l-76 157l74 157h70l-75 -158l75 -156h-68z" />
    <glyph glyph-name="guilsinglright" unicode="&#x203a;" horiz-adv-x="213" 
d="M40 100l75 156l-75 158h70l74 -157l-76 -157h-68z" />
    <glyph glyph-name="fraction" unicode="&#x2044;" horiz-adv-x="122" 
d="M-138 -22l340 760h58l-340 -760h-58z" />
    <glyph glyph-name="Euro" unicode="&#x20ac;" 
d="M373 169q-8 -96 -47.5 -136.5t-100.5 -40.5q-43 0 -71.5 20t-45.5 57t-25 90t-11 119h-59v54h58v33v42h-58v54h61q4 62 14.5 111.5t29.5 83.5t47.5 52t67.5 18q60 0 95 -38t42 -117l-72 -5q-10 88 -64 88q-40 0 -58.5 -53t-23.5 -140h152v-54h-154v-42v-33h154v-54h-153
q2 -48 6.5 -87.5t13.5 -67.5t23 -43.5t35 -15.5q32 0 49 27t22 84l73 -6v0z" />
    <glyph glyph-name="afii61289" unicode="&#x2113;" horiz-adv-x="325" 
d="M267 3q-16 -3 -30.5 -5t-33.5 -2q-33 0 -57 8.5t-39.5 27t-25 48t-14.5 70.5q-11 -2 -23 -3t-24 -1v70q11 0 21 1.5t20 3.5q-2 32 -2 67v77q0 95 4.5 163t17 112t36 65t61.5 21q62 0 86.5 -46.5t24.5 -133.5q0 -57 -9.5 -112t-28 -102.5t-46 -86t-64.5 -63.5
q6 -66 22.5 -91.5t54.5 -25.5q12 0 23.5 2t25.5 6v-70zM137 271q38 45 56 117.5t18 157.5q0 61 -7.5 86.5t-27.5 25.5q-14 0 -21.5 -16t-11.5 -51t-5 -91t-1 -135v-94z" />
    <glyph glyph-name="trademark" unicode="&#x2122;" horiz-adv-x="460" 
d="M67 359v313h-57v46h164v-46h-57v-313h-50zM381 359v270h-2l-48 -270h-34l-47 270h-2v-270h-46v359h73l38 -227h2l40 227h72v-359h-46z" />
    <glyph glyph-name="uni2126" unicode="&#x2126;" horiz-adv-x="438" 
d="M240 0v82q17 37 30 80t22 88.5t14 92.5t5 93q0 105 -20 160.5t-72 55.5q-53 0 -72.5 -56t-19.5 -160q0 -46 4.5 -93t13.5 -92.5t22 -88.5t30 -80v-82h-170v82h100q-39 75 -61.5 168.5t-22.5 193.5q0 140 40.5 211t135.5 71q94 0 135 -71t41 -211q0 -100 -23 -193.5
t-62 -168.5h101v-82h-171z" />
    <glyph glyph-name="estimated" unicode="&#x212e;" horiz-adv-x="850" 
d="M753 139q-27 -30 -59 -57.5t-72.5 -48.5t-91.5 -33.5t-116 -12.5q-76 0 -146 25t-123 72t-85 115t-32 154q0 83 33.5 152t89.5 119t130.5 78t157.5 28q98 0 171.5 -32.5t122 -85t73 -119t24.5 -133.5v-5h-631l-8 -10v-237q49 -45 107.5 -64.5t121.5 -19.5
q90 0 154.5 32.5t109.5 82.5h69zM668 402v211q-54 50 -112.5 65t-116.5 15q-29 0 -61 -4t-64 -14t-63.5 -27.5t-59.5 -44.5v-201l8 -10h461z" />
    <glyph glyph-name="partialdiff" unicode="&#x2202;" horiz-adv-x="362" 
d="M238 489q-5 27 -14.5 54.5t-21 54t-25 50.5t-25.5 44l62 38q21 -37 42 -78.5t37.5 -92.5t27 -114.5t10.5 -143.5q0 -151 -38.5 -230t-123.5 -79q-142 0 -142 255q0 132 38.5 197t104.5 65q16 0 34 -5t32 -16zM252 392q-12 23 -30 37.5t-41 14.5q-42 0 -60.5 -51.5
t-18.5 -145.5t16.5 -142t51.5 -48q45 0 66 65t21 179q0 25 -1.5 47t-3.5 44z" />
    <glyph glyph-name="uni2206" unicode="&#x2206;" horiz-adv-x="398" 
d="M17 0v82l124 636h114l126 -636v-82h-364zM200 648h-3l-102 -566h206z" />
    <glyph glyph-name="product" unicode="&#x220f;" horiz-adv-x="442" 
d="M311 -84v726h-179v-726h-81v802h341v-802h-81z" />
    <glyph glyph-name="summation" unicode="&#x2211;" horiz-adv-x="366" 
d="M9 -84v82l179 343l-163 302v75h306v-75h-214l137 -251v-94l-156 -300h255v-82h-344z" />
    <glyph glyph-name="minus" unicode="&#x2212;" 
d="M26 232v50h332v-50h-332z" />
    <glyph glyph-name="uni2215" unicode="&#x2215;" horiz-adv-x="122" 
d="M-138 -22l340 760h58l-340 -760h-58z" />
    <glyph glyph-name="uni2219" unicode="&#x2219;" horiz-adv-x="188" 
d="M51 205v106h85v-106h-85z" />
    <glyph glyph-name="radical" unicode="&#x221a;" horiz-adv-x="392" 
d="M179 -26l-78 325h-83v50h131l63 -287h2l126 748h54l-140 -836h-75z" />
    <glyph glyph-name="infinity" unicode="&#x221e;" horiz-adv-x="528" 
d="M509 258q0 -73 -36 -118t-99 -45q-45 0 -71 19.5t-42 54.5q-16 -32 -42 -53t-71 -21q-62 0 -95 44.5t-33 116.5q0 35 9.5 65t26.5 51.5t42 34t56 12.5q46 0 71.5 -19.5t41.5 -54.5q17 32 43 53t71 21q61 0 94.5 -43t33.5 -118zM440 258q0 46 -16 73t-47 27
q-19 0 -32 -8.5t-22.5 -23t-16.5 -33.5t-14 -40q21 -97 79 -97q32 0 50.5 28t18.5 74zM88 256q0 -46 16 -73t48 -27q18 0 31 8.5t22.5 23t16.5 33.5t14 40q-21 97 -79 97q-32 0 -50.5 -28t-18.5 -74z" />
    <glyph glyph-name="integral" unicode="&#x222b;" horiz-adv-x="207" 
d="M-6 -107q5 -2 12.5 -2.5t15.5 -0.5q19 0 30 10.5t11 33.5v668q0 63 21.5 93.5t76.5 30.5q8 0 19 -1t20 -3v-69q-11 3 -24 3q-17 0 -27 -10.5t-10 -33.5v-668q0 -62 -24.5 -93t-80.5 -31q-8 0 -19.5 1t-20.5 3v69z" />
    <glyph glyph-name="approxequal" unicode="&#x2248;" 
d="M356 238q-5 -55 -28 -87.5t-65 -32.5q-24 0 -43 9t-35 19.5t-31 19.5t-32 9q-20 0 -28.5 -17t-11.5 -43h-54q5 55 28 88t65 33q24 0 43 -9t35 -20t31 -20t32 -9q21 0 29 17t11 43h54zM356 399q-5 -55 -28 -88t-65 -33q-24 0 -43 9t-35 20t-31 20t-32 9q-20 0 -28.5 -17
t-11.5 -43h-54q5 55 28 87.5t65 32.5q24 0 43 -9t35 -19.5t31 -19.5t32 -9q21 0 29 17t11 43h54z" />
    <glyph glyph-name="notequal" unicode="&#x2260;" 
d="M247 308l-53 -102h164v-50h-189l-51 -99h-60l51 99h-83v50h108l53 102h-161v50h186l55 106h60l-55 -106h86v-50h-111z" />
    <glyph glyph-name="lessequal" unicode="&#x2264;" 
d="M39 228v60l300 109v-55l-245 -84l245 -83v-55zM39 41v50h300v-50h-300z" />
    <glyph glyph-name="greaterequal" unicode="&#x2265;" 
d="M45 120v55l246 83l-246 84v55l300 -109v-60zM45 41v50h300v-50h-300z" />
    <glyph glyph-name="lozenge" unicode="&#x25ca;" horiz-adv-x="343" 
d="M136 0l-109 359l109 360h71l109 -360l-109 -359h-71zM257 359l-85 295l-87 -295l87 -294z" />
    <glyph glyph-name="uniE000" unicode="&#xe000;" horiz-adv-x="293" 
d="M161 770l-88 141h87l59 -141h-58z" />
    <glyph glyph-name="uniE002" unicode="&#xe002;" horiz-adv-x="293" 
d="M73 770l60 141h86l-87 -141h-59z" />
    <glyph glyph-name="uniE004" unicode="&#xe004;" horiz-adv-x="293" 
d="M207 770l-60 97l-61 -97h-60l72 141h98l71 -141h-60z" />
    <glyph glyph-name="uniE006" unicode="&#xe006;" horiz-adv-x="293" 
d="M97 770l-71 141h60l60 -97l61 97h60l-73 -141h-97z" />
    <glyph glyph-name="uniE008" unicode="&#xe008;" horiz-adv-x="293" 
d="M100 562l24 156h79l-52 -156h-51z" />
    <glyph glyph-name="uniE009" unicode="&#xe009;" horiz-adv-x="293" 
d="M279 882q-5 -45 -22.5 -72.5t-54.5 -27.5q-19 0 -34 6t-28 13.5t-24.5 14t-23.5 6.5q-14 0 -21 -11.5t-9 -31.5h-48q5 45 22 72.5t54 27.5q19 0 34.5 -6.5t28 -14t24 -13.5t23.5 -6q15 0 21.5 11.5t9.5 31.5h48z" />
    <glyph glyph-name="uniE00B" unicode="&#xe00b;" horiz-adv-x="293" 
d="M45 786v89h75v-89h-75zM172 786v89h75v-89h-75z" />
    <glyph glyph-name="uniE00D" unicode="&#xe00d;" horiz-adv-x="293" 
d="M39 803v56h215v-56h-215z" />
    <glyph glyph-name="uniE00F" unicode="&#xe00f;" horiz-adv-x="293" 
d="M274 899q-5 -53 -35.5 -88t-96.5 -35q-33 0 -55.5 9.5t-37.5 26t-22 39t-8 48.5h47q5 -31 22.5 -49.5t55.5 -18.5q39 0 58.5 18.5t24.5 49.5h47z" />
    <glyph glyph-name="uniE011" unicode="&#xe011;" horiz-adv-x="293" 
d="M197 853q0 21 -14 36t-37 15t-37 -15t-14 -36q0 -20 14 -35t37 -15t37 15t14 35zM235 853q0 -38 -25.5 -63.5t-63.5 -25.5t-63.5 25.5t-25.5 63.5q0 19 6.5 35.5t18.5 28.5t28.5 19t35.5 7t35.5 -7t28.5 -19t18.5 -28.5t6.5 -35.5z" />
    <glyph glyph-name="uniE013" unicode="&#xe013;" horiz-adv-x="293" 
d="M139 770l59 141h87l-88 -141h-58zM8 770l59 141h87l-88 -141h-58z" />
    <glyph glyph-name="uniE015" unicode="&#xe015;" horiz-adv-x="293" 
d="M108 786v89h75v-89h-75z" />
    <glyph glyph-name="uniE017" unicode="&#xe017;" horiz-adv-x="293" 
d="M107 -183l34 76h-27v76h72v-74l-37 -78h-42z" />
    <glyph glyph-name="uniE01A" unicode="&#xe01a;" horiz-adv-x="293" 
d="M107 555v74l36 77h43l-35 -76h28v-75h-72z" />
    <glyph glyph-name="uniFB01" unicode="&#xfb01;" horiz-adv-x="386" 
d="M267 623v94h78v-94h-78zM270 0v518h72v-518h-72zM75 0v454h-70v64h70v86q0 68 26.5 95t76.5 27q12 0 22.5 -1t23.5 -4v-66q-8 2 -15 3t-15 1q-26 0 -36 -12t-10 -35v-94h76v-64h-76v-454h-73z" />
    <glyph glyph-name="uniFB02" unicode="&#xfb02;" horiz-adv-x="386" 
d="M270 0v718h72v-718h-72zM75 0v454h-70v64h70v86q0 68 26.5 95t76.5 27q12 0 22.5 -1t23.5 -4v-66q-8 2 -15 3t-15 1q-26 0 -36 -12t-10 -35v-94h76v-64h-76v-454h-73z" />
    </font>
</defs>
</svg>
